<svg xmlns="http://www.w3.org/2000/svg" viewBox="0 0 140.35 140.35"><defs><style>.cls-1{fill:#fff;}</style></defs><g id="Layer_2" data-name="Layer 2"><g id="Layer_2-2" data-name="Layer 2"><g id="like"><circle id="bg" class="cls-1" cx="70.18" cy="70.18" r="70.18"/><path id="heart" d="M113,60.67a28.43,28.43,0,0,1-2.53,13.58,39.51,39.51,0,0,1-10.36,14c-9.09,8.3-18.41,16.36-27.65,24.51-1.57,1.38-2.58,1.36-4.22,0-2.59-2.14-5.18-4.27-7.73-6.44C52.8,99.8,44.93,93.43,38,86c-3.87-4.17-7.29-8.66-9.11-14.13a24.19,24.19,0,0,1-1.56-6.78,24.71,24.71,0,0,1,.23-5.47,24.8,24.8,0,0,1,4.5-11.91A21.51,21.51,0,0,1,63,43.14,29.43,29.43,0,0,1,70.35,52c.43-.73.8-1.36,1.19-2s.86-1.3,1.32-1.92c5.56-7.35,12.77-10.9,22-9,8.18,1.66,14.22,8.68,16.79,14.36A22.35,22.35,0,0,1,113,60.67Z"/></g></g></g></svg>