<svg width="242" height="172" viewBox="0 0 242 172" fill="none" xmlns="http://www.w3.org/2000/svg">
<g id="menu">
<circle id="ellipse" cx="120.5" cy="85.5" r="68.5" fill="#FF00B8"/>
<path id="MENU" d="M92.9814 114.85L84.2214 99.6777L84.2733 99.6477L99.5025 111.085L101.789 109.765L99.4831 90.8318L99.535 90.8018L108.31 106L110.466 104.755L99.8914 86.4391L96.7737 88.2391L99.3067 108.046L99.2807 108.061L83.3677 95.9791L80.25 97.7791L90.825 116.095L92.9814 114.85ZM126.886 95.2759L125.776 93.3533L115.098 99.5183L111.288 92.9192L120.667 87.5042L119.587 85.6335L110.208 91.0485L106.743 85.047L117.161 79.032L116.051 77.1094L103.528 84.3394L114.103 102.656L126.886 95.2759ZM131.774 92.4536L122.819 76.9431L122.871 76.9131L141.231 86.9936L144.115 85.3286L133.54 67.0122L131.357 68.2722L140.327 83.8087L140.275 83.8387L121.926 73.7172L119.042 75.3822L129.617 93.6986L131.774 92.4536ZM155.291 79.7421C159.682 77.2071 160.951 72.3864 158.386 67.9437L151.771 56.4862L149.589 57.7462L156.204 69.2037C158.109 72.5032 157.376 75.9746 154.181 77.8196C150.959 79.6796 147.452 78.3444 145.682 75.2787L139.067 63.8212L136.91 65.0662L143.525 76.5237C146.09 80.9664 150.874 82.2921 155.291 79.7421Z" fill="white"/>
</g>
</svg>
