<svg width="1322" height="419" viewBox="0 0 1322 419" fill="none" xmlns="http://www.w3.org/2000/svg">
<rect width="1322" height="419" fill="#E5E5E5"/>
<g id="MacBook Pro 16&#34; - 1">
<rect width="1728" height="1117" transform="translate(-207 -304)" fill="white"/>
<g id="Group 19">
<g id="Rectangle 3" filter="url(#filter0_d_0_1)">
<rect x="7" y="104" width="1300" height="300" rx="30" fill="white"/>
<rect x="8" y="105" width="1298" height="298" rx="29" stroke="#003166" stroke-width="2"/>
</g>
<g id="Group 8">
<path id="FROM" d="M81.26 138.575V139.97H76.835V143.045H80.285V144.44H76.835V149H75.125V138.575H81.26ZM88.2597 149L85.8597 144.83H84.5547V149H82.8447V138.575H86.4447C87.2447 138.575 87.9197 138.715 88.4697 138.995C89.0297 139.275 89.4447 139.65 89.7147 140.12C89.9947 140.59 90.1347 141.115 90.1347 141.695C90.1347 142.375 89.9347 142.995 89.5347 143.555C89.1447 144.105 88.5397 144.48 87.7197 144.68L90.2997 149H88.2597ZM84.5547 143.465H86.4447C87.0847 143.465 87.5647 143.305 87.8847 142.985C88.2147 142.665 88.3797 142.235 88.3797 141.695C88.3797 141.155 88.2197 140.735 87.8997 140.435C87.5797 140.125 87.0947 139.97 86.4447 139.97H84.5547V143.465ZM97.0773 149.105C96.1073 149.105 95.2123 148.88 94.3923 148.43C93.5823 147.97 92.9373 147.335 92.4573 146.525C91.9873 145.705 91.7523 144.785 91.7523 143.765C91.7523 142.745 91.9873 141.83 92.4573 141.02C92.9373 140.21 93.5823 139.58 94.3923 139.13C95.2123 138.67 96.1073 138.44 97.0773 138.44C98.0573 138.44 98.9523 138.67 99.7623 139.13C100.582 139.58 101.227 140.21 101.697 141.02C102.167 141.83 102.402 142.745 102.402 143.765C102.402 144.785 102.167 145.705 101.697 146.525C101.227 147.335 100.582 147.97 99.7623 148.43C98.9523 148.88 98.0573 149.105 97.0773 149.105ZM97.0773 147.62C97.7673 147.62 98.3823 147.465 98.9223 147.155C99.4623 146.835 99.8823 146.385 100.182 145.805C100.492 145.215 100.647 144.535 100.647 143.765C100.647 142.995 100.492 142.32 100.182 141.74C99.8823 141.16 99.4623 140.715 98.9223 140.405C98.3823 140.095 97.7673 139.94 97.0773 139.94C96.3873 139.94 95.7723 140.095 95.2323 140.405C94.6923 140.715 94.2673 141.16 93.9573 141.74C93.6573 142.32 93.5073 142.995 93.5073 143.765C93.5073 144.535 93.6573 145.215 93.9573 145.805C94.2673 146.385 94.6923 146.835 95.2323 147.155C95.7723 147.465 96.3873 147.62 97.0773 147.62ZM115.065 138.575V149H113.355V141.86L110.175 149H108.99L105.795 141.86V149H104.085V138.575H105.93L109.59 146.75L113.235 138.575H115.065Z" fill="black"/>
<g id="Group 6">
<rect id="Rectangle 8" x="57.5" y="159.5" width="349" height="74" fill="white" stroke="#A9A9A9"/>
<g id="Group 5">
<path id="New York" d="M93.98 207H89.78L80.27 192.63V207H76.07V186.03H80.27L89.78 200.43V186.03H93.98V207ZM113.581 198.33C113.581 198.93 113.541 199.47 113.461 199.95H101.311C101.411 201.15 101.831 202.09 102.571 202.77C103.311 203.45 104.221 203.79 105.301 203.79C106.861 203.79 107.971 203.12 108.631 201.78H113.161C112.681 203.38 111.761 204.7 110.401 205.74C109.041 206.76 107.371 207.27 105.391 207.27C103.791 207.27 102.351 206.92 101.071 206.22C99.8105 205.5 98.8205 204.49 98.1005 203.19C97.4005 201.89 97.0505 200.39 97.0505 198.69C97.0505 196.97 97.4005 195.46 98.1005 194.16C98.8005 192.86 99.7805 191.86 101.041 191.16C102.301 190.46 103.751 190.11 105.391 190.11C106.971 190.11 108.381 190.45 109.621 191.13C110.881 191.81 111.851 192.78 112.531 194.04C113.231 195.28 113.581 196.71 113.581 198.33ZM109.231 197.13C109.211 196.05 108.821 195.19 108.061 194.55C107.301 193.89 106.371 193.56 105.271 193.56C104.231 193.56 103.351 193.88 102.631 194.52C101.931 195.14 101.501 196.01 101.341 197.13H109.231ZM139.686 190.38L134.826 207H130.296L127.266 195.39L124.236 207H119.676L114.786 190.38H119.046L121.986 203.04L125.166 190.38H129.606L132.726 203.01L135.666 190.38H139.686ZM165.757 186.06L158.677 199.71V207H154.477V199.71L147.367 186.06H152.107L156.607 195.63L161.077 186.06H165.757ZM175.559 207.27C173.959 207.27 172.519 206.92 171.239 206.22C169.959 205.5 168.949 204.49 168.209 203.19C167.489 201.89 167.129 200.39 167.129 198.69C167.129 196.99 167.499 195.49 168.239 194.19C168.999 192.89 170.029 191.89 171.329 191.19C172.629 190.47 174.079 190.11 175.679 190.11C177.279 190.11 178.729 190.47 180.029 191.19C181.329 191.89 182.349 192.89 183.089 194.19C183.849 195.49 184.229 196.99 184.229 198.69C184.229 200.39 183.839 201.89 183.059 203.19C182.299 204.49 181.259 205.5 179.939 206.22C178.639 206.92 177.179 207.27 175.559 207.27ZM175.559 203.61C176.319 203.61 177.029 203.43 177.689 203.07C178.369 202.69 178.909 202.13 179.309 201.39C179.709 200.65 179.909 199.75 179.909 198.69C179.909 197.11 179.489 195.9 178.649 195.06C177.829 194.2 176.819 193.77 175.619 193.77C174.419 193.77 173.409 194.2 172.589 195.06C171.789 195.9 171.389 197.11 171.389 198.69C171.389 200.27 171.779 201.49 172.559 202.35C173.359 203.19 174.359 203.61 175.559 203.61ZM191.51 192.96C192.05 192.08 192.75 191.39 193.61 190.89C194.49 190.39 195.49 190.14 196.61 190.14V194.55H195.5C194.18 194.55 193.18 194.86 192.5 195.48C191.84 196.1 191.51 197.18 191.51 198.72V207H187.31V190.38H191.51V192.96ZM209.279 207L203.639 199.92V207H199.439V184.8H203.639V197.43L209.219 190.38H214.679L207.359 198.72L214.739 207H209.279Z" fill="black"/>
<g id="Group 4">
<g id="Group 3">
<rect id="Rectangle 11" x="230" y="171" width="75" height="50" rx="20" fill="#FFA701"/>
</g>
<path id="JFK" d="M254.825 186.06V200.76C254.825 202.8 254.235 204.39 253.055 205.53C251.875 206.65 250.295 207.21 248.315 207.21C246.315 207.21 244.695 206.63 243.455 205.47C242.235 204.31 241.625 202.69 241.625 200.61H245.825C245.845 201.51 246.055 202.21 246.455 202.71C246.875 203.21 247.475 203.46 248.255 203.46C249.015 203.46 249.595 203.22 249.995 202.74C250.395 202.26 250.595 201.6 250.595 200.76V186.06H254.825ZM272.654 186.06V189.45H263.924V194.82H270.614V198.15H263.924V207H259.724V186.06H272.654ZM287.453 207L279.833 197.67V207H275.633V186.06H279.833V195.45L287.453 186.06H292.523L283.883 196.44L292.763 207H287.453Z" fill="black"/>
</g>
</g>
</g>
</g>
<g id="Group 10">
<path id="CLASS" d="M74.555 268.765C74.555 267.745 74.79 266.83 75.26 266.02C75.74 265.21 76.385 264.58 77.195 264.13C78.015 263.67 78.91 263.44 79.88 263.44C80.99 263.44 81.975 263.715 82.835 264.265C83.705 264.805 84.335 265.575 84.725 266.575H82.67C82.4 266.025 82.025 265.615 81.545 265.345C81.065 265.075 80.51 264.94 79.88 264.94C79.19 264.94 78.575 265.095 78.035 265.405C77.495 265.715 77.07 266.16 76.76 266.74C76.46 267.32 76.31 267.995 76.31 268.765C76.31 269.535 76.46 270.21 76.76 270.79C77.07 271.37 77.495 271.82 78.035 272.14C78.575 272.45 79.19 272.605 79.88 272.605C80.51 272.605 81.065 272.47 81.545 272.2C82.025 271.93 82.4 271.52 82.67 270.97H84.725C84.335 271.97 83.705 272.74 82.835 273.28C81.975 273.82 80.99 274.09 79.88 274.09C78.9 274.09 78.005 273.865 77.195 273.415C76.385 272.955 75.74 272.32 75.26 271.51C74.79 270.7 74.555 269.785 74.555 268.765ZM88.4366 272.62H91.9616V274H86.7266V263.575H88.4366V272.62ZM99.6766 271.87H95.3116L94.5616 274H92.7766L96.5116 263.56H98.4916L102.227 274H100.427L99.6766 271.87ZM99.1966 270.475L97.5016 265.63L95.7916 270.475H99.1966ZM107.286 274.105C106.586 274.105 105.956 273.985 105.396 273.745C104.836 273.495 104.396 273.145 104.076 272.695C103.756 272.245 103.596 271.72 103.596 271.12H105.426C105.466 271.57 105.641 271.94 105.951 272.23C106.271 272.52 106.716 272.665 107.286 272.665C107.876 272.665 108.336 272.525 108.666 272.245C108.996 271.955 109.161 271.585 109.161 271.135C109.161 270.785 109.056 270.5 108.846 270.28C108.646 270.06 108.391 269.89 108.081 269.77C107.781 269.65 107.361 269.52 106.821 269.38C106.141 269.2 105.586 269.02 105.156 268.84C104.736 268.65 104.376 268.36 104.076 267.97C103.776 267.58 103.626 267.06 103.626 266.41C103.626 265.81 103.776 265.285 104.076 264.835C104.376 264.385 104.796 264.04 105.336 263.8C105.876 263.56 106.501 263.44 107.211 263.44C108.221 263.44 109.046 263.695 109.686 264.205C110.336 264.705 110.696 265.395 110.766 266.275H108.876C108.846 265.895 108.666 265.57 108.336 265.3C108.006 265.03 107.571 264.895 107.031 264.895C106.541 264.895 106.141 265.02 105.831 265.27C105.521 265.52 105.366 265.88 105.366 266.35C105.366 266.67 105.461 266.935 105.651 267.145C105.851 267.345 106.101 267.505 106.401 267.625C106.701 267.745 107.111 267.875 107.631 268.015C108.321 268.205 108.881 268.395 109.311 268.585C109.751 268.775 110.121 269.07 110.421 269.47C110.731 269.86 110.886 270.385 110.886 271.045C110.886 271.575 110.741 272.075 110.451 272.545C110.171 273.015 109.756 273.395 109.206 273.685C108.666 273.965 108.026 274.105 107.286 274.105ZM116.338 274.105C115.638 274.105 115.008 273.985 114.448 273.745C113.888 273.495 113.448 273.145 113.128 272.695C112.808 272.245 112.648 271.72 112.648 271.12H114.478C114.518 271.57 114.693 271.94 115.003 272.23C115.323 272.52 115.768 272.665 116.338 272.665C116.928 272.665 117.388 272.525 117.718 272.245C118.048 271.955 118.213 271.585 118.213 271.135C118.213 270.785 118.108 270.5 117.898 270.28C117.698 270.06 117.443 269.89 117.133 269.77C116.833 269.65 116.413 269.52 115.873 269.38C115.193 269.2 114.638 269.02 114.208 268.84C113.788 268.65 113.428 268.36 113.128 267.97C112.828 267.58 112.678 267.06 112.678 266.41C112.678 265.81 112.828 265.285 113.128 264.835C113.428 264.385 113.848 264.04 114.388 263.8C114.928 263.56 115.553 263.44 116.263 263.44C117.273 263.44 118.098 263.695 118.738 264.205C119.388 264.705 119.748 265.395 119.818 266.275H117.928C117.898 265.895 117.718 265.57 117.388 265.3C117.058 265.03 116.623 264.895 116.083 264.895C115.593 264.895 115.193 265.02 114.883 265.27C114.573 265.52 114.418 265.88 114.418 266.35C114.418 266.67 114.513 266.935 114.703 267.145C114.903 267.345 115.153 267.505 115.453 267.625C115.753 267.745 116.163 267.875 116.683 268.015C117.373 268.205 117.933 268.395 118.363 268.585C118.803 268.775 119.173 269.07 119.473 269.47C119.783 269.86 119.938 270.385 119.938 271.045C119.938 271.575 119.793 272.075 119.503 272.545C119.223 273.015 118.808 273.395 118.258 273.685C117.718 273.965 117.078 274.105 116.338 274.105Z" fill="black"/>
<g id="Group 6_2">
<rect id="Rectangle 8_2" x="57.5" y="284.5" width="424.5" height="74" fill="white" stroke="#A9A9A9"/>
<g id="Group 5_2">
<path id="Economy" d="M82.6986 314.45V319.7H89.7486V323.03H82.6986V328.58H90.6486V332H78.4986V311.03H90.6486V314.45H82.6986ZM93.3854 323.69C93.3854 321.97 93.7354 320.47 94.4354 319.19C95.1354 317.89 96.1054 316.89 97.3454 316.19C98.5854 315.47 100.005 315.11 101.605 315.11C103.665 315.11 105.365 315.63 106.705 316.67C108.065 317.69 108.975 319.13 109.435 320.99H104.905C104.665 320.27 104.255 319.71 103.675 319.31C103.115 318.89 102.415 318.68 101.575 318.68C100.375 318.68 99.4254 319.12 98.7254 320C98.0254 320.86 97.6754 322.09 97.6754 323.69C97.6754 325.27 98.0254 326.5 98.7254 327.38C99.4254 328.24 100.375 328.67 101.575 328.67C103.275 328.67 104.385 327.91 104.905 326.39H109.435C108.975 328.19 108.065 329.62 106.705 330.68C105.345 331.74 103.645 332.27 101.605 332.27C100.005 332.27 98.5854 331.92 97.3454 331.22C96.1054 330.5 95.1354 329.5 94.4354 328.22C93.7354 326.92 93.3854 325.41 93.3854 323.69ZM119.892 332.27C118.292 332.27 116.852 331.92 115.572 331.22C114.292 330.5 113.282 329.49 112.542 328.19C111.822 326.89 111.462 325.39 111.462 323.69C111.462 321.99 111.832 320.49 112.572 319.19C113.332 317.89 114.362 316.89 115.662 316.19C116.962 315.47 118.412 315.11 120.012 315.11C121.612 315.11 123.062 315.47 124.362 316.19C125.662 316.89 126.682 317.89 127.422 319.19C128.182 320.49 128.562 321.99 128.562 323.69C128.562 325.39 128.172 326.89 127.392 328.19C126.632 329.49 125.592 330.5 124.272 331.22C122.972 331.92 121.512 332.27 119.892 332.27ZM119.892 328.61C120.652 328.61 121.362 328.43 122.022 328.07C122.702 327.69 123.242 327.13 123.642 326.39C124.042 325.65 124.242 324.75 124.242 323.69C124.242 322.11 123.822 320.9 122.982 320.06C122.162 319.2 121.152 318.77 119.952 318.77C118.752 318.77 117.742 319.2 116.922 320.06C116.122 320.9 115.722 322.11 115.722 323.69C115.722 325.27 116.112 326.49 116.892 327.35C117.692 328.19 118.692 328.61 119.892 328.61ZM140.853 315.14C142.833 315.14 144.433 315.77 145.653 317.03C146.873 318.27 147.483 320.01 147.483 322.25V332H143.283V322.82C143.283 321.5 142.953 320.49 142.293 319.79C141.633 319.07 140.733 318.71 139.593 318.71C138.433 318.71 137.513 319.07 136.833 319.79C136.173 320.49 135.843 321.5 135.843 322.82V332H131.643V315.38H135.843V317.45C136.403 316.73 137.113 316.17 137.973 315.77C138.853 315.35 139.813 315.14 140.853 315.14ZM158.857 332.27C157.257 332.27 155.817 331.92 154.537 331.22C153.257 330.5 152.247 329.49 151.507 328.19C150.787 326.89 150.427 325.39 150.427 323.69C150.427 321.99 150.797 320.49 151.537 319.19C152.297 317.89 153.327 316.89 154.627 316.19C155.927 315.47 157.377 315.11 158.977 315.11C160.577 315.11 162.027 315.47 163.327 316.19C164.627 316.89 165.647 317.89 166.387 319.19C167.147 320.49 167.527 321.99 167.527 323.69C167.527 325.39 167.137 326.89 166.357 328.19C165.597 329.49 164.557 330.5 163.237 331.22C161.937 331.92 160.477 332.27 158.857 332.27ZM158.857 328.61C159.617 328.61 160.327 328.43 160.987 328.07C161.667 327.69 162.207 327.13 162.607 326.39C163.007 325.65 163.207 324.75 163.207 323.69C163.207 322.11 162.787 320.9 161.947 320.06C161.127 319.2 160.117 318.77 158.917 318.77C157.717 318.77 156.707 319.2 155.887 320.06C155.087 320.9 154.687 322.11 154.687 323.69C154.687 325.27 155.077 326.49 155.857 327.35C156.657 328.19 157.657 328.61 158.857 328.61ZM191.248 315.14C193.288 315.14 194.928 315.77 196.168 317.03C197.428 318.27 198.058 320.01 198.058 322.25V332H193.858V322.82C193.858 321.52 193.528 320.53 192.868 319.85C192.208 319.15 191.308 318.8 190.168 318.8C189.028 318.8 188.118 319.15 187.438 319.85C186.778 320.53 186.448 321.52 186.448 322.82V332H182.248V322.82C182.248 321.52 181.918 320.53 181.258 319.85C180.598 319.15 179.698 318.8 178.558 318.8C177.398 318.8 176.478 319.15 175.798 319.85C175.138 320.53 174.808 321.52 174.808 322.82V332H170.608V315.38H174.808V317.39C175.348 316.69 176.038 316.14 176.878 315.74C177.738 315.34 178.678 315.14 179.698 315.14C180.998 315.14 182.158 315.42 183.178 315.98C184.198 316.52 184.988 317.3 185.548 318.32C186.088 317.36 186.868 316.59 187.888 316.01C188.928 315.43 190.048 315.14 191.248 315.14ZM217.944 315.38L207.654 339.86H203.184L206.784 331.58L200.124 315.38H204.834L209.124 326.99L213.474 315.38H217.944Z" fill="black"/>
</g>
</g>
</g>
<g id="Group 11">
<path id="PASSENGERS" d="M557.415 266.68C557.415 267.21 557.29 267.71 557.04 268.18C556.79 268.65 556.39 269.035 555.84 269.335C555.29 269.625 554.585 269.77 553.725 269.77H551.835V274H550.125V263.575H553.725C554.525 263.575 555.2 263.715 555.75 263.995C556.31 264.265 556.725 264.635 556.995 265.105C557.275 265.575 557.415 266.1 557.415 266.68ZM553.725 268.375C554.375 268.375 554.86 268.23 555.18 267.94C555.5 267.64 555.66 267.22 555.66 266.68C555.66 265.54 555.015 264.97 553.725 264.97H551.835V268.375H553.725ZM565.331 271.87H560.966L560.216 274H558.431L562.166 263.56H564.146L567.881 274H566.081L565.331 271.87ZM564.851 270.475L563.156 265.63L561.446 270.475H564.851ZM572.94 274.105C572.24 274.105 571.61 273.985 571.05 273.745C570.49 273.495 570.05 273.145 569.73 272.695C569.41 272.245 569.25 271.72 569.25 271.12H571.08C571.12 271.57 571.295 271.94 571.605 272.23C571.925 272.52 572.37 272.665 572.94 272.665C573.53 272.665 573.99 272.525 574.32 272.245C574.65 271.955 574.815 271.585 574.815 271.135C574.815 270.785 574.71 270.5 574.5 270.28C574.3 270.06 574.045 269.89 573.735 269.77C573.435 269.65 573.015 269.52 572.475 269.38C571.795 269.2 571.24 269.02 570.81 268.84C570.39 268.65 570.03 268.36 569.73 267.97C569.43 267.58 569.28 267.06 569.28 266.41C569.28 265.81 569.43 265.285 569.73 264.835C570.03 264.385 570.45 264.04 570.99 263.8C571.53 263.56 572.155 263.44 572.865 263.44C573.875 263.44 574.7 263.695 575.34 264.205C575.99 264.705 576.35 265.395 576.42 266.275H574.53C574.5 265.895 574.32 265.57 573.99 265.3C573.66 265.03 573.225 264.895 572.685 264.895C572.195 264.895 571.795 265.02 571.485 265.27C571.175 265.52 571.02 265.88 571.02 266.35C571.02 266.67 571.115 266.935 571.305 267.145C571.505 267.345 571.755 267.505 572.055 267.625C572.355 267.745 572.765 267.875 573.285 268.015C573.975 268.205 574.535 268.395 574.965 268.585C575.405 268.775 575.775 269.07 576.075 269.47C576.385 269.86 576.54 270.385 576.54 271.045C576.54 271.575 576.395 272.075 576.105 272.545C575.825 273.015 575.41 273.395 574.86 273.685C574.32 273.965 573.68 274.105 572.94 274.105ZM581.993 274.105C581.293 274.105 580.663 273.985 580.103 273.745C579.543 273.495 579.103 273.145 578.783 272.695C578.463 272.245 578.303 271.72 578.303 271.12H580.133C580.173 271.57 580.348 271.94 580.658 272.23C580.978 272.52 581.423 272.665 581.993 272.665C582.583 272.665 583.043 272.525 583.373 272.245C583.703 271.955 583.868 271.585 583.868 271.135C583.868 270.785 583.763 270.5 583.553 270.28C583.353 270.06 583.098 269.89 582.788 269.77C582.488 269.65 582.068 269.52 581.528 269.38C580.848 269.2 580.293 269.02 579.863 268.84C579.443 268.65 579.083 268.36 578.783 267.97C578.483 267.58 578.333 267.06 578.333 266.41C578.333 265.81 578.483 265.285 578.783 264.835C579.083 264.385 579.503 264.04 580.043 263.8C580.583 263.56 581.208 263.44 581.918 263.44C582.928 263.44 583.753 263.695 584.393 264.205C585.043 264.705 585.403 265.395 585.473 266.275H583.583C583.553 265.895 583.373 265.57 583.043 265.3C582.713 265.03 582.278 264.895 581.738 264.895C581.248 264.895 580.848 265.02 580.538 265.27C580.228 265.52 580.073 265.88 580.073 266.35C580.073 266.67 580.168 266.935 580.358 267.145C580.558 267.345 580.808 267.505 581.108 267.625C581.408 267.745 581.818 267.875 582.338 268.015C583.028 268.205 583.588 268.395 584.018 268.585C584.458 268.775 584.828 269.07 585.128 269.47C585.438 269.86 585.593 270.385 585.593 271.045C585.593 271.575 585.448 272.075 585.158 272.545C584.878 273.015 584.463 273.395 583.913 273.685C583.373 273.965 582.733 274.105 581.993 274.105ZM589.32 264.955V268.015H592.92V269.41H589.32V272.605H593.37V274H587.61V263.56H593.37V264.955H589.32ZM604.042 274H602.332L597.187 266.215V274H595.477V263.56H597.187L602.332 271.33V263.56H604.042V274ZM613.832 266.575C613.562 266.055 613.187 265.665 612.707 265.405C612.227 265.135 611.672 265 611.042 265C610.352 265 609.737 265.155 609.197 265.465C608.657 265.775 608.232 266.215 607.922 266.785C607.622 267.355 607.472 268.015 607.472 268.765C607.472 269.515 607.622 270.18 607.922 270.76C608.232 271.33 608.657 271.77 609.197 272.08C609.737 272.39 610.352 272.545 611.042 272.545C611.972 272.545 612.727 272.285 613.307 271.765C613.887 271.245 614.242 270.54 614.372 269.65H610.457V268.285H616.202V269.62C616.092 270.43 615.802 271.175 615.332 271.855C614.872 272.535 614.267 273.08 613.517 273.49C612.777 273.89 611.952 274.09 611.042 274.09C610.062 274.09 609.167 273.865 608.357 273.415C607.547 272.955 606.902 272.32 606.422 271.51C605.952 270.7 605.717 269.785 605.717 268.765C605.717 267.745 605.952 266.83 606.422 266.02C606.902 265.21 607.547 264.58 608.357 264.13C609.177 263.67 610.072 263.44 611.042 263.44C612.152 263.44 613.137 263.715 613.997 264.265C614.867 264.805 615.497 265.575 615.887 266.575H613.832ZM619.599 264.955V268.015H623.199V269.41H619.599V272.605H623.649V274H617.889V263.56H623.649V264.955H619.599ZM631.17 274L628.77 269.83H627.465V274H625.755V263.575H629.355C630.155 263.575 630.83 263.715 631.38 263.995C631.94 264.275 632.355 264.65 632.625 265.12C632.905 265.59 633.045 266.115 633.045 266.695C633.045 267.375 632.845 267.995 632.445 268.555C632.055 269.105 631.45 269.48 630.63 269.68L633.21 274H631.17ZM627.465 268.465H629.355C629.995 268.465 630.475 268.305 630.795 267.985C631.125 267.665 631.29 267.235 631.29 266.695C631.29 266.155 631.13 265.735 630.81 265.435C630.49 265.125 630.005 264.97 629.355 264.97H627.465V268.465ZM638.667 274.105C637.967 274.105 637.337 273.985 636.777 273.745C636.217 273.495 635.777 273.145 635.457 272.695C635.137 272.245 634.977 271.72 634.977 271.12H636.807C636.847 271.57 637.022 271.94 637.332 272.23C637.652 272.52 638.097 272.665 638.667 272.665C639.257 272.665 639.717 272.525 640.047 272.245C640.377 271.955 640.542 271.585 640.542 271.135C640.542 270.785 640.437 270.5 640.227 270.28C640.027 270.06 639.772 269.89 639.462 269.77C639.162 269.65 638.742 269.52 638.202 269.38C637.522 269.2 636.967 269.02 636.537 268.84C636.117 268.65 635.757 268.36 635.457 267.97C635.157 267.58 635.007 267.06 635.007 266.41C635.007 265.81 635.157 265.285 635.457 264.835C635.757 264.385 636.177 264.04 636.717 263.8C637.257 263.56 637.882 263.44 638.592 263.44C639.602 263.44 640.427 263.695 641.067 264.205C641.717 264.705 642.077 265.395 642.147 266.275H640.257C640.227 265.895 640.047 265.57 639.717 265.3C639.387 265.03 638.952 264.895 638.412 264.895C637.922 264.895 637.522 265.02 637.212 265.27C636.902 265.52 636.747 265.88 636.747 266.35C636.747 266.67 636.842 266.935 637.032 267.145C637.232 267.345 637.482 267.505 637.782 267.625C638.082 267.745 638.492 267.875 639.012 268.015C639.702 268.205 640.262 268.395 640.692 268.585C641.132 268.775 641.502 269.07 641.802 269.47C642.112 269.86 642.267 270.385 642.267 271.045C642.267 271.575 642.122 272.075 641.832 272.545C641.552 273.015 641.137 273.395 640.587 273.685C640.047 273.965 639.407 274.105 638.667 274.105Z" fill="black"/>
<g id="Group 6_3">
<rect id="Rectangle 8_3" x="532" y="284" width="400" height="75" fill="white"/>
<g id="Group 5_3">
<path id="1 Adult" d="M552.509 314V310.13H559.739V332H555.419V314H552.509ZM584.356 328.01H576.016L574.636 332H570.226L577.756 311.03H582.646L590.176 332H585.736L584.356 328.01ZM583.216 324.65L580.186 315.89L577.156 324.65H583.216ZM591.911 323.63C591.911 321.95 592.241 320.46 592.901 319.16C593.581 317.86 594.501 316.86 595.661 316.16C596.821 315.46 598.111 315.11 599.531 315.11C600.611 315.11 601.641 315.35 602.621 315.83C603.601 316.29 604.381 316.91 604.961 317.69V309.8H609.221V332H604.961V329.54C604.441 330.36 603.711 331.02 602.771 331.52C601.831 332.02 600.741 332.27 599.501 332.27C598.101 332.27 596.821 331.91 595.661 331.19C594.501 330.47 593.581 329.46 592.901 328.16C592.241 326.84 591.911 325.33 591.911 323.63ZM604.991 323.69C604.991 322.67 604.791 321.8 604.391 321.08C603.991 320.34 603.451 319.78 602.771 319.4C602.091 319 601.361 318.8 600.581 318.8C599.801 318.8 599.081 318.99 598.421 319.37C597.761 319.75 597.221 320.31 596.801 321.05C596.401 321.77 596.201 322.63 596.201 323.63C596.201 324.63 596.401 325.51 596.801 326.27C597.221 327.01 597.761 327.58 598.421 327.98C599.101 328.38 599.821 328.58 600.581 328.58C601.361 328.58 602.091 328.39 602.771 328.01C603.451 327.61 603.991 327.05 604.391 326.33C604.791 325.59 604.991 324.71 604.991 323.69ZM629.013 315.38V332H624.783V329.9C624.243 330.62 623.533 331.19 622.653 331.61C621.793 332.01 620.853 332.21 619.833 332.21C618.533 332.21 617.383 331.94 616.383 331.4C615.383 330.84 614.593 330.03 614.013 328.97C613.453 327.89 613.173 326.61 613.173 325.13V315.38H617.373V324.53C617.373 325.85 617.703 326.87 618.363 327.59C619.023 328.29 619.923 328.64 621.063 328.64C622.223 328.64 623.133 328.29 623.793 327.59C624.453 326.87 624.783 325.85 624.783 324.53V315.38H629.013ZM637.357 309.8V332H633.157V309.8H637.357ZM646.396 318.83V326.87C646.396 327.43 646.526 327.84 646.786 328.1C647.066 328.34 647.526 328.46 648.166 328.46H650.116V332H647.476C643.936 332 642.166 330.28 642.166 326.84V318.83H640.186V315.38H642.166V311.27H646.396V315.38H650.116V318.83H646.396Z" fill="black"/>
</g>
</g>
<g id="Group 7">
<rect id="Rectangle 8_4" x="532.5" y="284.5" width="424.5" height="74" fill="white" stroke="#A9A9A9"/>
<g id="Group 5_4">
<path id="1 Adult_2" d="M552.509 314V310.13H559.739V332H555.419V314H552.509ZM584.356 328.01H576.016L574.636 332H570.226L577.756 311.03H582.646L590.176 332H585.736L584.356 328.01ZM583.216 324.65L580.186 315.89L577.156 324.65H583.216ZM591.911 323.63C591.911 321.95 592.241 320.46 592.901 319.16C593.581 317.86 594.501 316.86 595.661 316.16C596.821 315.46 598.111 315.11 599.531 315.11C600.611 315.11 601.641 315.35 602.621 315.83C603.601 316.29 604.381 316.91 604.961 317.69V309.8H609.221V332H604.961V329.54C604.441 330.36 603.711 331.02 602.771 331.52C601.831 332.02 600.741 332.27 599.501 332.27C598.101 332.27 596.821 331.91 595.661 331.19C594.501 330.47 593.581 329.46 592.901 328.16C592.241 326.84 591.911 325.33 591.911 323.63ZM604.991 323.69C604.991 322.67 604.791 321.8 604.391 321.08C603.991 320.34 603.451 319.78 602.771 319.4C602.091 319 601.361 318.8 600.581 318.8C599.801 318.8 599.081 318.99 598.421 319.37C597.761 319.75 597.221 320.31 596.801 321.05C596.401 321.77 596.201 322.63 596.201 323.63C596.201 324.63 596.401 325.51 596.801 326.27C597.221 327.01 597.761 327.58 598.421 327.98C599.101 328.38 599.821 328.58 600.581 328.58C601.361 328.58 602.091 328.39 602.771 328.01C603.451 327.61 603.991 327.05 604.391 326.33C604.791 325.59 604.991 324.71 604.991 323.69ZM629.013 315.38V332H624.783V329.9C624.243 330.62 623.533 331.19 622.653 331.61C621.793 332.01 620.853 332.21 619.833 332.21C618.533 332.21 617.383 331.94 616.383 331.4C615.383 330.84 614.593 330.03 614.013 328.97C613.453 327.89 613.173 326.61 613.173 325.13V315.38H617.373V324.53C617.373 325.85 617.703 326.87 618.363 327.59C619.023 328.29 619.923 328.64 621.063 328.64C622.223 328.64 623.133 328.29 623.793 327.59C624.453 326.87 624.783 325.85 624.783 324.53V315.38H629.013ZM637.357 309.8V332H633.157V309.8H637.357ZM646.396 318.83V326.87C646.396 327.43 646.526 327.84 646.786 328.1C647.066 328.34 647.526 328.46 648.166 328.46H650.116V332H647.476C643.936 332 642.166 330.28 642.166 326.84V318.83H640.186V315.38H642.166V311.27H646.396V315.38H650.116V318.83H646.396Z" fill="black"/>
</g>
</g>
</g>
<g id="Group 9">
<path id="TO" d="M930.86 138.575V139.97H928.085V149H926.375V139.97H923.585V138.575H930.86ZM937.347 149.105C936.377 149.105 935.482 148.88 934.662 148.43C933.852 147.97 933.207 147.335 932.727 146.525C932.257 145.705 932.022 144.785 932.022 143.765C932.022 142.745 932.257 141.83 932.727 141.02C933.207 140.21 933.852 139.58 934.662 139.13C935.482 138.67 936.377 138.44 937.347 138.44C938.327 138.44 939.222 138.67 940.032 139.13C940.852 139.58 941.497 140.21 941.967 141.02C942.437 141.83 942.672 142.745 942.672 143.765C942.672 144.785 942.437 145.705 941.967 146.525C941.497 147.335 940.852 147.97 940.032 148.43C939.222 148.88 938.327 149.105 937.347 149.105ZM937.347 147.62C938.037 147.62 938.652 147.465 939.192 147.155C939.732 146.835 940.152 146.385 940.452 145.805C940.762 145.215 940.917 144.535 940.917 143.765C940.917 142.995 940.762 142.32 940.452 141.74C940.152 141.16 939.732 140.715 939.192 140.405C938.652 140.095 938.037 139.94 937.347 139.94C936.657 139.94 936.042 140.095 935.502 140.405C934.962 140.715 934.537 141.16 934.227 141.74C933.927 142.32 933.777 142.995 933.777 143.765C933.777 144.535 933.927 145.215 934.227 145.805C934.537 146.385 934.962 146.835 935.502 147.155C936.042 147.465 936.657 147.62 937.347 147.62Z" fill="black"/>
<g id="Group 7_2">
<rect id="Rectangle 9" x="907.5" y="159.5" width="349" height="74" fill="white" stroke="#A9A9A9"/>
<g id="Group 2">
<path id="Singapore" d="M933.3 207.21C931.84 207.21 930.52 206.96 929.34 206.46C928.18 205.96 927.26 205.24 926.58 204.3C925.9 203.36 925.55 202.25 925.53 200.97H930.03C930.09 201.83 930.39 202.51 930.93 203.01C931.49 203.51 932.25 203.76 933.21 203.76C934.19 203.76 934.96 203.53 935.52 203.07C936.08 202.59 936.36 201.97 936.36 201.21C936.36 200.59 936.17 200.08 935.79 199.68C935.41 199.28 934.93 198.97 934.35 198.75C933.79 198.51 933.01 198.25 932.01 197.97C930.65 197.57 929.54 197.18 928.68 196.8C927.84 196.4 927.11 195.81 926.49 195.03C925.89 194.23 925.59 193.17 925.59 191.85C925.59 190.61 925.9 189.53 926.52 188.61C927.14 187.69 928.01 186.99 929.13 186.51C930.25 186.01 931.53 185.76 932.97 185.76C935.13 185.76 936.88 186.29 938.22 187.35C939.58 188.39 940.33 189.85 940.47 191.73H935.85C935.81 191.01 935.5 190.42 934.92 189.96C934.36 189.48 933.61 189.24 932.67 189.24C931.85 189.24 931.19 189.45 930.69 189.87C930.21 190.29 929.97 190.9 929.97 191.7C929.97 192.26 930.15 192.73 930.51 193.11C930.89 193.47 931.35 193.77 931.89 194.01C932.45 194.23 933.23 194.49 934.23 194.79C935.59 195.19 936.7 195.59 937.56 195.99C938.42 196.39 939.16 196.99 939.78 197.79C940.4 198.59 940.71 199.64 940.71 200.94C940.71 202.06 940.42 203.1 939.84 204.06C939.26 205.02 938.41 205.79 937.29 206.37C936.17 206.93 934.84 207.21 933.3 207.21ZM946.481 188.4C945.741 188.4 945.121 188.17 944.621 187.71C944.141 187.23 943.901 186.64 943.901 185.94C943.901 185.24 944.141 184.66 944.621 184.2C945.121 183.72 945.741 183.48 946.481 183.48C947.221 183.48 947.831 183.72 948.311 184.2C948.811 184.66 949.061 185.24 949.061 185.94C949.061 186.64 948.811 187.23 948.311 187.71C947.831 188.17 947.221 188.4 946.481 188.4ZM948.551 190.38V207H944.351V190.38H948.551ZM961.911 190.14C963.891 190.14 965.491 190.77 966.711 192.03C967.931 193.27 968.541 195.01 968.541 197.25V207H964.341V197.82C964.341 196.5 964.011 195.49 963.351 194.79C962.691 194.07 961.791 193.71 960.651 193.71C959.491 193.71 958.571 194.07 957.891 194.79C957.231 195.49 956.901 196.5 956.901 197.82V207H952.701V190.38H956.901V192.45C957.461 191.73 958.171 191.17 959.031 190.77C959.911 190.35 960.871 190.14 961.911 190.14ZM979.045 190.11C980.285 190.11 981.375 190.36 982.315 190.86C983.255 191.34 983.995 191.97 984.535 192.75V190.38H988.765V207.12C988.765 208.66 988.455 210.03 987.835 211.23C987.215 212.45 986.285 213.41 985.045 214.11C983.805 214.83 982.305 215.19 980.545 215.19C978.185 215.19 976.245 214.64 974.725 213.54C973.225 212.44 972.375 210.94 972.175 209.04H976.345C976.565 209.8 977.035 210.4 977.755 210.84C978.495 211.3 979.385 211.53 980.425 211.53C981.645 211.53 982.635 211.16 983.395 210.42C984.155 209.7 984.535 208.6 984.535 207.12V204.54C983.995 205.32 983.245 205.97 982.285 206.49C981.345 207.01 980.265 207.27 979.045 207.27C977.645 207.27 976.365 206.91 975.205 206.19C974.045 205.47 973.125 204.46 972.445 203.16C971.785 201.84 971.455 200.33 971.455 198.63C971.455 196.95 971.785 195.46 972.445 194.16C973.125 192.86 974.035 191.86 975.175 191.16C976.335 190.46 977.625 190.11 979.045 190.11ZM984.535 198.69C984.535 197.67 984.335 196.8 983.935 196.08C983.535 195.34 982.995 194.78 982.315 194.4C981.635 194 980.905 193.8 980.125 193.8C979.345 193.8 978.625 193.99 977.965 194.37C977.305 194.75 976.765 195.31 976.345 196.05C975.945 196.77 975.745 197.63 975.745 198.63C975.745 199.63 975.945 200.51 976.345 201.27C976.765 202.01 977.305 202.58 977.965 202.98C978.645 203.38 979.365 203.58 980.125 203.58C980.905 203.58 981.635 203.39 982.315 203.01C982.995 202.61 983.535 202.05 983.935 201.33C984.335 200.59 984.535 199.71 984.535 198.69ZM991.787 198.63C991.787 196.95 992.117 195.46 992.777 194.16C993.457 192.86 994.367 191.86 995.507 191.16C996.667 190.46 997.957 190.11 999.377 190.11C1000.62 190.11 1001.7 190.36 1002.62 190.86C1003.56 191.36 1004.31 191.99 1004.87 192.75V190.38H1009.1V207H1004.87V204.57C1004.33 205.35 1003.58 206 1002.62 206.52C1001.68 207.02 1000.59 207.27 999.347 207.27C997.947 207.27 996.667 206.91 995.507 206.19C994.367 205.47 993.457 204.46 992.777 203.16C992.117 201.84 991.787 200.33 991.787 198.63ZM1004.87 198.69C1004.87 197.67 1004.67 196.8 1004.27 196.08C1003.87 195.34 1003.33 194.78 1002.65 194.4C1001.97 194 1001.24 193.8 1000.46 193.8C999.677 193.8 998.957 193.99 998.297 194.37C997.637 194.75 997.097 195.31 996.677 196.05C996.277 196.77 996.077 197.63 996.077 198.63C996.077 199.63 996.277 200.51 996.677 201.27C997.097 202.01 997.637 202.58 998.297 202.98C998.977 203.38 999.697 203.58 1000.46 203.58C1001.24 203.58 1001.97 203.39 1002.65 203.01C1003.33 202.61 1003.87 202.05 1004.27 201.33C1004.67 200.59 1004.87 199.71 1004.87 198.69ZM1017.4 192.78C1017.94 192.02 1018.68 191.39 1019.62 190.89C1020.58 190.37 1021.67 190.11 1022.89 190.11C1024.31 190.11 1025.59 190.46 1026.73 191.16C1027.89 191.86 1028.8 192.86 1029.46 194.16C1030.14 195.44 1030.48 196.93 1030.48 198.63C1030.48 200.33 1030.14 201.84 1029.46 203.16C1028.8 204.46 1027.89 205.47 1026.73 206.19C1025.59 206.91 1024.31 207.27 1022.89 207.27C1021.67 207.27 1020.59 207.02 1019.65 206.52C1018.73 206.02 1017.98 205.39 1017.4 204.63V214.92H1013.2V190.38H1017.4V192.78ZM1026.19 198.63C1026.19 197.63 1025.98 196.77 1025.56 196.05C1025.16 195.31 1024.62 194.75 1023.94 194.37C1023.28 193.99 1022.56 193.8 1021.78 193.8C1021.02 193.8 1020.3 194 1019.62 194.4C1018.96 194.78 1018.42 195.34 1018 196.08C1017.6 196.82 1017.4 197.69 1017.4 198.69C1017.4 199.69 1017.6 200.56 1018 201.3C1018.42 202.04 1018.96 202.61 1019.62 203.01C1020.3 203.39 1021.02 203.58 1021.78 203.58C1022.56 203.58 1023.28 203.38 1023.94 202.98C1024.62 202.58 1025.16 202.01 1025.56 201.27C1025.98 200.53 1026.19 199.65 1026.19 198.63ZM1040.91 207.27C1039.31 207.27 1037.87 206.92 1036.59 206.22C1035.31 205.5 1034.3 204.49 1033.56 203.19C1032.84 201.89 1032.48 200.39 1032.48 198.69C1032.48 196.99 1032.85 195.49 1033.59 194.19C1034.35 192.89 1035.38 191.89 1036.68 191.19C1037.98 190.47 1039.43 190.11 1041.03 190.11C1042.63 190.11 1044.08 190.47 1045.38 191.19C1046.68 191.89 1047.7 192.89 1048.44 194.19C1049.2 195.49 1049.58 196.99 1049.58 198.69C1049.58 200.39 1049.19 201.89 1048.41 203.19C1047.65 204.49 1046.61 205.5 1045.29 206.22C1043.99 206.92 1042.53 207.27 1040.91 207.27ZM1040.91 203.61C1041.67 203.61 1042.38 203.43 1043.04 203.07C1043.72 202.69 1044.26 202.13 1044.66 201.39C1045.06 200.65 1045.26 199.75 1045.26 198.69C1045.26 197.11 1044.84 195.9 1044 195.06C1043.18 194.2 1042.17 193.77 1040.97 193.77C1039.77 193.77 1038.76 194.2 1037.94 195.06C1037.14 195.9 1036.74 197.11 1036.74 198.69C1036.74 200.27 1037.13 201.49 1037.91 202.35C1038.71 203.19 1039.71 203.61 1040.91 203.61ZM1056.86 192.96C1057.4 192.08 1058.1 191.39 1058.96 190.89C1059.84 190.39 1060.84 190.14 1061.96 190.14V194.55H1060.85C1059.53 194.55 1058.53 194.86 1057.85 195.48C1057.19 196.1 1056.86 197.18 1056.86 198.72V207H1052.66V190.38H1056.86V192.96ZM1080.24 198.33C1080.24 198.93 1080.2 199.47 1080.12 199.95H1067.97C1068.07 201.15 1068.49 202.09 1069.23 202.77C1069.97 203.45 1070.88 203.79 1071.96 203.79C1073.52 203.79 1074.63 203.12 1075.29 201.78H1079.82C1079.34 203.38 1078.42 204.7 1077.06 205.74C1075.7 206.76 1074.03 207.27 1072.05 207.27C1070.45 207.27 1069.01 206.92 1067.73 206.22C1066.47 205.5 1065.48 204.49 1064.76 203.19C1064.06 201.89 1063.71 200.39 1063.71 198.69C1063.71 196.97 1064.06 195.46 1064.76 194.16C1065.46 192.86 1066.44 191.86 1067.7 191.16C1068.96 190.46 1070.41 190.11 1072.05 190.11C1073.63 190.11 1075.04 190.45 1076.28 191.13C1077.54 191.81 1078.51 192.78 1079.19 194.04C1079.89 195.28 1080.24 196.71 1080.24 198.33ZM1075.89 197.13C1075.87 196.05 1075.48 195.19 1074.72 194.55C1073.96 193.89 1073.03 193.56 1071.93 193.56C1070.89 193.56 1070.01 193.88 1069.29 194.52C1068.59 195.14 1068.16 196.01 1068 197.13H1075.89Z" fill="black"/>
<g id="Group 1">
<rect id="Rectangle 10" x="1095" y="172" width="75" height="50" rx="20" fill="#FFA701"/>
<path id="SIN" d="M1116.95 207.21C1115.49 207.21 1114.17 206.96 1112.99 206.46C1111.83 205.96 1110.91 205.24 1110.23 204.3C1109.55 203.36 1109.2 202.25 1109.18 200.97H1113.68C1113.74 201.83 1114.04 202.51 1114.58 203.01C1115.14 203.51 1115.9 203.76 1116.86 203.76C1117.84 203.76 1118.61 203.53 1119.17 203.07C1119.73 202.59 1120.01 201.97 1120.01 201.21C1120.01 200.59 1119.82 200.08 1119.44 199.68C1119.06 199.28 1118.58 198.97 1118 198.75C1117.44 198.51 1116.66 198.25 1115.66 197.97C1114.3 197.57 1113.19 197.18 1112.33 196.8C1111.49 196.4 1110.76 195.81 1110.14 195.03C1109.54 194.23 1109.24 193.17 1109.24 191.85C1109.24 190.61 1109.55 189.53 1110.17 188.61C1110.79 187.69 1111.66 186.99 1112.78 186.51C1113.9 186.01 1115.18 185.76 1116.62 185.76C1118.78 185.76 1120.53 186.29 1121.87 187.35C1123.23 188.39 1123.98 189.85 1124.12 191.73H1119.5C1119.46 191.01 1119.15 190.42 1118.57 189.96C1118.01 189.48 1117.26 189.24 1116.32 189.24C1115.5 189.24 1114.84 189.45 1114.34 189.87C1113.86 190.29 1113.62 190.9 1113.62 191.7C1113.62 192.26 1113.8 192.73 1114.16 193.11C1114.54 193.47 1115 193.77 1115.54 194.01C1116.1 194.23 1116.88 194.49 1117.88 194.79C1119.24 195.19 1120.35 195.59 1121.21 195.99C1122.07 196.39 1122.81 196.99 1123.43 197.79C1124.05 198.59 1124.36 199.64 1124.36 200.94C1124.36 202.06 1124.07 203.1 1123.49 204.06C1122.91 205.02 1122.06 205.79 1120.94 206.37C1119.82 206.93 1118.49 207.21 1116.95 207.21ZM1132.21 186.06V207H1128.01V186.06H1132.21ZM1154.27 207H1150.07L1140.56 192.63V207H1136.36V186.03H1140.56L1150.07 200.43V186.03H1154.27V207Z" fill="black"/>
</g>
</g>
</g>
</g>
<g id="Group 18">
<line id="Line 2" x1="433" y1="195" x2="629" y2="195" stroke="#A9A9A9" stroke-width="2" stroke-linecap="round" stroke-dasharray="8 8"/>
<line id="Line 3" x1="685" y1="195" x2="881" y2="195" stroke="#A9A9A9" stroke-width="2" stroke-linecap="round" stroke-dasharray="8 8"/>
<path id="Vector 1" d="M672.717 192.739C673.869 193.025 674.218 193.877 674.249 194.266C674.262 194.842 673.88 195.33 672.617 196.002C671.606 196.54 669.837 196.7 669.079 196.712L663.752 196.768C662.642 196.661 662.116 197.382 661.992 197.755C659.7 201.411 654.998 208.875 654.526 209.49C654.055 210.104 653.129 210.42 652.724 210.501C652.326 210.494 651.395 210.398 650.861 210.071C650.327 209.743 650.435 209.052 650.556 208.748L652.539 203.188L653.729 199.659L654.159 197.048L645.912 196.738C645.599 197.351 644.911 198.721 644.654 199.303C644.397 199.884 643.616 200.225 643.258 200.323C643.065 200.346 642.566 200.35 642.12 200.178C641.673 200.006 641.529 199.386 641.513 199.097C641.599 196.176 641.785 190.215 641.842 189.746C641.899 189.276 642.325 189.134 642.531 189.122L643.609 189.064C644.433 189.024 644.888 189.761 645.013 190.135L646.025 192.556L654.142 192.082C654.422 190.788 654.161 189.399 653.996 188.866C653.381 186.763 652.057 182.165 651.686 180.594C651.223 178.631 652.472 178.877 653.802 178.714C654.866 178.584 655.594 179.373 655.825 179.785C657.565 182.842 661.208 189.273 661.86 190.539C662.513 191.806 663.255 192.138 663.545 192.145C664.21 192.118 666.108 192.063 668.379 192.057C671.218 192.049 671.277 192.381 672.717 192.739Z" fill="#A9A9A9"/>
</g>
<g id="Group 12" filter="url(#filter1_d_0_1)">
<rect id="Rectangle 2" x="7" y="6" width="250" height="75" rx="37.5" fill="#003166"/>
<path id="SEARCH FLIGHTS" d="M56.2 50.14C55.2267 50.14 54.3467 49.9733 53.56 49.64C52.7867 49.3067 52.1733 48.8267 51.72 48.2C51.2667 47.5733 51.0333 46.8333 51.02 45.98H54.02C54.06 46.5533 54.26 47.0067 54.62 47.34C54.9933 47.6733 55.5 47.84 56.14 47.84C56.7933 47.84 57.3067 47.6867 57.68 47.38C58.0533 47.06 58.24 46.6467 58.24 46.14C58.24 45.7267 58.1133 45.3867 57.86 45.12C57.6067 44.8533 57.2867 44.6467 56.9 44.5C56.5267 44.34 56.0067 44.1667 55.34 43.98C54.4333 43.7133 53.6933 43.4533 53.12 43.2C52.56 42.9333 52.0733 42.54 51.66 42.02C51.26 41.4867 51.06 40.78 51.06 39.9C51.06 39.0733 51.2667 38.3533 51.68 37.74C52.0933 37.1267 52.6733 36.66 53.42 36.34C54.1667 36.0067 55.02 35.84 55.98 35.84C57.42 35.84 58.5867 36.1933 59.48 36.9C60.3867 37.5933 60.8867 38.5667 60.98 39.82H57.9C57.8733 39.34 57.6667 38.9467 57.28 38.64C56.9067 38.32 56.4067 38.16 55.78 38.16C55.2333 38.16 54.7933 38.3 54.46 38.58C54.14 38.86 53.98 39.2667 53.98 39.8C53.98 40.1733 54.1 40.4867 54.34 40.74C54.5933 40.98 54.9 41.18 55.26 41.34C55.6333 41.4867 56.1533 41.66 56.82 41.86C57.7267 42.1267 58.4667 42.3933 59.04 42.66C59.6133 42.9267 60.1067 43.3267 60.52 43.86C60.9333 44.3933 61.14 45.0933 61.14 45.96C61.14 46.7067 60.9467 47.4 60.56 48.04C60.1733 48.68 59.6067 49.1933 58.86 49.58C58.1133 49.9533 57.2267 50.14 56.2 50.14ZM66.3675 38.3V41.8H71.0675V44.02H66.3675V47.72H71.6675V50H63.5675V36.02H71.6675V38.3H66.3675ZM82.772 47.34H77.212L76.292 50H73.352L78.372 36.02H81.632L86.652 50H83.692L82.772 47.34ZM82.012 45.1L79.992 39.26L77.972 45.1H82.012ZM95.7284 50L92.6484 44.56H91.3284V50H88.5284V36.04H93.7684C94.8484 36.04 95.7684 36.2333 96.5284 36.62C97.2884 36.9933 97.8551 37.5067 98.2284 38.16C98.6151 38.8 98.8084 39.52 98.8084 40.32C98.8084 41.24 98.5418 42.0733 98.0084 42.82C97.4751 43.5533 96.6818 44.06 95.6284 44.34L98.9684 50H95.7284ZM91.3284 42.46H93.6684C94.4284 42.46 94.9951 42.28 95.3684 41.92C95.7418 41.5467 95.9284 41.0333 95.9284 40.38C95.9284 39.74 95.7418 39.2467 95.3684 38.9C94.9951 38.54 94.4284 38.36 93.6684 38.36H91.3284V42.46ZM100.661 43C100.661 41.6267 100.968 40.4 101.581 39.32C102.208 38.2267 103.054 37.38 104.121 36.78C105.201 36.1667 106.408 35.86 107.741 35.86C109.301 35.86 110.668 36.26 111.841 37.06C113.014 37.86 113.834 38.9667 114.301 40.38H111.081C110.761 39.7133 110.308 39.2133 109.721 38.88C109.148 38.5467 108.481 38.38 107.721 38.38C106.908 38.38 106.181 38.5733 105.541 38.96C104.914 39.3333 104.421 39.8667 104.061 40.56C103.714 41.2533 103.541 42.0667 103.541 43C103.541 43.92 103.714 44.7333 104.061 45.44C104.421 46.1333 104.914 46.6733 105.541 47.06C106.181 47.4333 106.908 47.62 107.721 47.62C108.481 47.62 109.148 47.4533 109.721 47.12C110.308 46.7733 110.761 46.2667 111.081 45.6H114.301C113.834 47.0267 113.014 48.14 111.841 48.94C110.681 49.7267 109.314 50.12 107.741 50.12C106.408 50.12 105.201 49.82 104.121 49.22C103.054 48.6067 102.208 47.76 101.581 46.68C100.968 45.6 100.661 44.3733 100.661 43ZM128.273 36.04V50H125.473V44.06H119.493V50H116.693V36.04H119.493V41.78H125.473V36.04H128.273ZM144.414 36.04V38.3H138.594V41.88H143.054V44.1H138.594V50H135.794V36.04H144.414ZM149.2 47.78H153.8V50H146.4V36.04H149.2V47.78ZM158.379 36.04V50H155.579V36.04H158.379ZM170.866 40.24C170.546 39.6533 170.106 39.2067 169.546 38.9C168.986 38.5933 168.332 38.44 167.586 38.44C166.759 38.44 166.026 38.6267 165.386 39C164.746 39.3733 164.246 39.9067 163.886 40.6C163.526 41.2933 163.346 42.0933 163.346 43C163.346 43.9333 163.526 44.7467 163.886 45.44C164.259 46.1333 164.772 46.6667 165.426 47.04C166.079 47.4133 166.839 47.6 167.706 47.6C168.772 47.6 169.646 47.32 170.326 46.76C171.006 46.1867 171.452 45.3933 171.666 44.38H166.866V42.24H174.426V44.68C174.239 45.6533 173.839 46.5533 173.226 47.38C172.612 48.2067 171.819 48.8733 170.846 49.38C169.886 49.8733 168.806 50.12 167.606 50.12C166.259 50.12 165.039 49.82 163.946 49.22C162.866 48.6067 162.012 47.76 161.386 46.68C160.772 45.6 160.466 44.3733 160.466 43C160.466 41.6267 160.772 40.4 161.386 39.32C162.012 38.2267 162.866 37.38 163.946 36.78C165.039 36.1667 166.252 35.86 167.586 35.86C169.159 35.86 170.526 36.2467 171.686 37.02C172.846 37.78 173.646 38.8533 174.086 40.24H170.866ZM188.077 36.04V50H185.277V44.06H179.297V50H176.497V36.04H179.297V41.78H185.277V36.04H188.077ZM200.333 36.04V38.3H196.613V50H193.813V38.3H190.093V36.04H200.333ZM207.196 50.14C206.223 50.14 205.343 49.9733 204.556 49.64C203.783 49.3067 203.169 48.8267 202.716 48.2C202.263 47.5733 202.029 46.8333 202.016 45.98H205.016C205.056 46.5533 205.256 47.0067 205.616 47.34C205.989 47.6733 206.496 47.84 207.136 47.84C207.789 47.84 208.303 47.6867 208.676 47.38C209.049 47.06 209.236 46.6467 209.236 46.14C209.236 45.7267 209.109 45.3867 208.856 45.12C208.603 44.8533 208.283 44.6467 207.896 44.5C207.523 44.34 207.003 44.1667 206.336 43.98C205.429 43.7133 204.689 43.4533 204.116 43.2C203.556 42.9333 203.069 42.54 202.656 42.02C202.256 41.4867 202.056 40.78 202.056 39.9C202.056 39.0733 202.263 38.3533 202.676 37.74C203.089 37.1267 203.669 36.66 204.416 36.34C205.163 36.0067 206.016 35.84 206.976 35.84C208.416 35.84 209.583 36.1933 210.476 36.9C211.383 37.5933 211.883 38.5667 211.976 39.82H208.896C208.869 39.34 208.663 38.9467 208.276 38.64C207.903 38.32 207.403 38.16 206.776 38.16C206.229 38.16 205.789 38.3 205.456 38.58C205.136 38.86 204.976 39.2667 204.976 39.8C204.976 40.1733 205.096 40.4867 205.336 40.74C205.589 40.98 205.896 41.18 206.256 41.34C206.629 41.4867 207.149 41.66 207.816 41.86C208.723 42.1267 209.463 42.3933 210.036 42.66C210.609 42.9267 211.103 43.3267 211.516 43.86C211.929 44.3933 212.136 45.0933 212.136 45.96C212.136 46.7067 211.943 47.4 211.556 48.04C211.169 48.68 210.603 49.1933 209.856 49.58C209.109 49.9533 208.223 50.14 207.196 50.14Z" fill="white"/>
</g>
<g id="Group 13" filter="url(#filter2_d_0_1)">
<rect id="Rectangle 4" x="269" y="6" width="250" height="75" rx="37.5" fill="#D3D3D3" fill-opacity="0.5"/>
<path id="MANAGE BOOKING" d="M317.6 36.04V50H314.8V40.92L311.06 50H308.94L305.18 40.92V50H302.38V36.04H305.56L310 46.42L314.44 36.04H317.6ZM328.928 47.34H323.368L322.448 50H319.508L324.528 36.02H327.788L332.808 50H329.848L328.928 47.34ZM328.168 45.1L326.148 39.26L324.128 45.1H328.168ZM346.625 50H343.825L337.485 40.42V50H334.685V36.02H337.485L343.825 45.62V36.02H346.625V50ZM357.952 47.34H352.392L351.472 50H348.532L353.552 36.02H356.812L361.832 50H358.872L357.952 47.34ZM357.192 45.1L355.172 39.26L353.152 45.1H357.192ZM373.428 40.24C373.108 39.6533 372.668 39.2067 372.108 38.9C371.548 38.5933 370.895 38.44 370.148 38.44C369.321 38.44 368.588 38.6267 367.948 39C367.308 39.3733 366.808 39.9067 366.448 40.6C366.088 41.2933 365.908 42.0933 365.908 43C365.908 43.9333 366.088 44.7467 366.448 45.44C366.821 46.1333 367.335 46.6667 367.988 47.04C368.641 47.4133 369.401 47.6 370.268 47.6C371.335 47.6 372.208 47.32 372.888 46.76C373.568 46.1867 374.015 45.3933 374.228 44.38H369.428V42.24H376.988V44.68C376.801 45.6533 376.401 46.5533 375.788 47.38C375.175 48.2067 374.381 48.8733 373.408 49.38C372.448 49.8733 371.368 50.12 370.168 50.12C368.821 50.12 367.601 49.82 366.508 49.22C365.428 48.6067 364.575 47.76 363.948 46.68C363.335 45.6 363.028 44.3733 363.028 43C363.028 41.6267 363.335 40.4 363.948 39.32C364.575 38.2267 365.428 37.38 366.508 36.78C367.601 36.1667 368.815 35.86 370.148 35.86C371.721 35.86 373.088 36.2467 374.248 37.02C375.408 37.78 376.208 38.8533 376.648 40.24H373.428ZM381.86 38.3V41.8H386.56V44.02H381.86V47.72H387.16V50H379.06V36.02H387.16V38.3H381.86ZM402.39 42.84C403.177 42.9867 403.823 43.38 404.33 44.02C404.837 44.66 405.09 45.3933 405.09 46.22C405.09 46.9667 404.903 47.6267 404.53 48.2C404.17 48.76 403.643 49.2 402.95 49.52C402.257 49.84 401.437 50 400.49 50H394.47V36.04H400.23C401.177 36.04 401.99 36.1933 402.67 36.5C403.363 36.8067 403.883 37.2333 404.23 37.78C404.59 38.3267 404.77 38.9467 404.77 39.64C404.77 40.4533 404.55 41.1333 404.11 41.68C403.683 42.2267 403.11 42.6133 402.39 42.84ZM397.27 41.8H399.83C400.497 41.8 401.01 41.6533 401.37 41.36C401.73 41.0533 401.91 40.62 401.91 40.06C401.91 39.5 401.73 39.0667 401.37 38.76C401.01 38.4533 400.497 38.3 399.83 38.3H397.27V41.8ZM400.09 47.72C400.77 47.72 401.297 47.56 401.67 47.24C402.057 46.92 402.25 46.4667 402.25 45.88C402.25 45.28 402.05 44.8133 401.65 44.48C401.25 44.1333 400.71 43.96 400.03 43.96H397.27V47.72H400.09ZM413.801 50.14C412.495 50.14 411.295 49.8333 410.201 49.22C409.108 48.6067 408.241 47.76 407.601 46.68C406.961 45.5867 406.641 44.3533 406.641 42.98C406.641 41.62 406.961 40.4 407.601 39.32C408.241 38.2267 409.108 37.3733 410.201 36.76C411.295 36.1467 412.495 35.84 413.801 35.84C415.121 35.84 416.321 36.1467 417.401 36.76C418.495 37.3733 419.355 38.2267 419.981 39.32C420.621 40.4 420.941 41.62 420.941 42.98C420.941 44.3533 420.621 45.5867 419.981 46.68C419.355 47.76 418.495 48.6067 417.401 49.22C416.308 49.8333 415.108 50.14 413.801 50.14ZM413.801 47.64C414.641 47.64 415.381 47.4533 416.021 47.08C416.661 46.6933 417.161 46.1467 417.521 45.44C417.881 44.7333 418.061 43.9133 418.061 42.98C418.061 42.0467 417.881 41.2333 417.521 40.54C417.161 39.8333 416.661 39.2933 416.021 38.92C415.381 38.5467 414.641 38.36 413.801 38.36C412.961 38.36 412.215 38.5467 411.561 38.92C410.921 39.2933 410.421 39.8333 410.061 40.54C409.701 41.2333 409.521 42.0467 409.521 42.98C409.521 43.9133 409.701 44.7333 410.061 45.44C410.421 46.1467 410.921 46.6933 411.561 47.08C412.215 47.4533 412.961 47.64 413.801 47.64ZM429.505 50.14C428.198 50.14 426.998 49.8333 425.905 49.22C424.811 48.6067 423.945 47.76 423.305 46.68C422.665 45.5867 422.345 44.3533 422.345 42.98C422.345 41.62 422.665 40.4 423.305 39.32C423.945 38.2267 424.811 37.3733 425.905 36.76C426.998 36.1467 428.198 35.84 429.505 35.84C430.825 35.84 432.025 36.1467 433.105 36.76C434.198 37.3733 435.058 38.2267 435.685 39.32C436.325 40.4 436.645 41.62 436.645 42.98C436.645 44.3533 436.325 45.5867 435.685 46.68C435.058 47.76 434.198 48.6067 433.105 49.22C432.011 49.8333 430.811 50.14 429.505 50.14ZM429.505 47.64C430.345 47.64 431.085 47.4533 431.725 47.08C432.365 46.6933 432.865 46.1467 433.225 45.44C433.585 44.7333 433.765 43.9133 433.765 42.98C433.765 42.0467 433.585 41.2333 433.225 40.54C432.865 39.8333 432.365 39.2933 431.725 38.92C431.085 38.5467 430.345 38.36 429.505 38.36C428.665 38.36 427.918 38.5467 427.265 38.92C426.625 39.2933 426.125 39.8333 425.765 40.54C425.405 41.2333 425.225 42.0467 425.225 42.98C425.225 43.9133 425.405 44.7333 425.765 45.44C426.125 46.1467 426.625 46.6933 427.265 47.08C427.918 47.4533 428.665 47.64 429.505 47.64ZM446.608 50L441.528 43.78V50H438.728V36.04H441.528V42.3L446.608 36.04H449.988L444.228 42.96L450.148 50H446.608ZM454.789 36.04V50H451.989V36.04H454.789ZM469.496 50H466.696L460.356 40.42V50H457.556V36.02H460.356L466.696 45.62V36.02H469.496V50ZM481.983 40.24C481.663 39.6533 481.223 39.2067 480.663 38.9C480.103 38.5933 479.449 38.44 478.703 38.44C477.876 38.44 477.143 38.6267 476.503 39C475.863 39.3733 475.363 39.9067 475.003 40.6C474.643 41.2933 474.463 42.0933 474.463 43C474.463 43.9333 474.643 44.7467 475.003 45.44C475.376 46.1333 475.889 46.6667 476.543 47.04C477.196 47.4133 477.956 47.6 478.823 47.6C479.889 47.6 480.763 47.32 481.443 46.76C482.123 46.1867 482.569 45.3933 482.783 44.38H477.983V42.24H485.543V44.68C485.356 45.6533 484.956 46.5533 484.343 47.38C483.729 48.2067 482.936 48.8733 481.963 49.38C481.003 49.8733 479.923 50.12 478.723 50.12C477.376 50.12 476.156 49.82 475.063 49.22C473.983 48.6067 473.129 47.76 472.503 46.68C471.889 45.6 471.583 44.3733 471.583 43C471.583 41.6267 471.889 40.4 472.503 39.32C473.129 38.2267 473.983 37.38 475.063 36.78C476.156 36.1667 477.369 35.86 478.703 35.86C480.276 35.86 481.643 36.2467 482.803 37.02C483.963 37.78 484.763 38.8533 485.203 40.24H481.983Z" fill="#003166"/>
</g>
<g id="Group 14" filter="url(#filter3_d_0_1)">
<rect id="Rectangle 5" x="531" y="6" width="250" height="75" rx="37.5" fill="#D3D3D3" fill-opacity="0.5"/>
<path id="CHECK IN" d="M609.7 43C609.7 41.6267 610.007 40.4 610.62 39.32C611.247 38.2267 612.093 37.38 613.16 36.78C614.24 36.1667 615.447 35.86 616.78 35.86C618.34 35.86 619.707 36.26 620.88 37.06C622.053 37.86 622.873 38.9667 623.34 40.38H620.12C619.8 39.7133 619.347 39.2133 618.76 38.88C618.187 38.5467 617.52 38.38 616.76 38.38C615.947 38.38 615.22 38.5733 614.58 38.96C613.953 39.3333 613.46 39.8667 613.1 40.56C612.753 41.2533 612.58 42.0667 612.58 43C612.58 43.92 612.753 44.7333 613.1 45.44C613.46 46.1333 613.953 46.6733 614.58 47.06C615.22 47.4333 615.947 47.62 616.76 47.62C617.52 47.62 618.187 47.4533 618.76 47.12C619.347 46.7733 619.8 46.2667 620.12 45.6H623.34C622.873 47.0267 622.053 48.14 620.88 48.94C619.72 49.7267 618.353 50.12 616.78 50.12C615.447 50.12 614.24 49.82 613.16 49.22C612.093 48.6067 611.247 47.76 610.62 46.68C610.007 45.6 609.7 44.3733 609.7 43ZM637.312 36.04V50H634.512V44.06H628.532V50H625.732V36.04H628.532V41.78H634.512V36.04H637.312ZM642.868 38.3V41.8H647.568V44.02H642.868V47.72H648.168V50H640.068V36.02H648.168V38.3H642.868ZM650.032 43C650.032 41.6267 650.339 40.4 650.952 39.32C651.579 38.2267 652.425 37.38 653.492 36.78C654.572 36.1667 655.779 35.86 657.112 35.86C658.672 35.86 660.039 36.26 661.212 37.06C662.385 37.86 663.205 38.9667 663.672 40.38H660.452C660.132 39.7133 659.679 39.2133 659.092 38.88C658.519 38.5467 657.852 38.38 657.092 38.38C656.279 38.38 655.552 38.5733 654.912 38.96C654.285 39.3333 653.792 39.8667 653.432 40.56C653.085 41.2533 652.912 42.0667 652.912 43C652.912 43.92 653.085 44.7333 653.432 45.44C653.792 46.1333 654.285 46.6733 654.912 47.06C655.552 47.4333 656.279 47.62 657.092 47.62C657.852 47.62 658.519 47.4533 659.092 47.12C659.679 46.7733 660.132 46.2667 660.452 45.6H663.672C663.205 47.0267 662.385 48.14 661.212 48.94C660.052 49.7267 658.685 50.12 657.112 50.12C655.779 50.12 654.572 49.82 653.492 49.22C652.425 48.6067 651.579 47.76 650.952 46.68C650.339 45.6 650.032 44.3733 650.032 43ZM673.944 50L668.864 43.78V50H666.064V36.04H668.864V42.3L673.944 36.04H677.324L671.564 42.96L677.484 50H673.944ZM686.891 36.04V50H684.091V36.04H686.891ZM701.597 50H698.797L692.457 40.42V50H689.657V36.02H692.457L698.797 45.62V36.02H701.597V50Z" fill="#003166"/>
</g>
<g id="Group 15" filter="url(#filter4_d_0_1)">
<rect id="Rectangle 6" x="794" y="6" width="250" height="75" rx="37.5" fill="#D3D3D3" fill-opacity="0.5"/>
<path id="FLIGHT STATUS" d="M855 36.04V38.3H849.18V41.88H853.64V44.1H849.18V50H846.38V36.04H855ZM859.785 47.78H864.385V50H856.985V36.04H859.785V47.78ZM868.965 36.04V50H866.165V36.04H868.965ZM881.452 40.24C881.132 39.6533 880.692 39.2067 880.132 38.9C879.572 38.5933 878.918 38.44 878.172 38.44C877.345 38.44 876.612 38.6267 875.972 39C875.332 39.3733 874.832 39.9067 874.472 40.6C874.112 41.2933 873.932 42.0933 873.932 43C873.932 43.9333 874.112 44.7467 874.472 45.44C874.845 46.1333 875.358 46.6667 876.012 47.04C876.665 47.4133 877.425 47.6 878.292 47.6C879.358 47.6 880.232 47.32 880.912 46.76C881.592 46.1867 882.038 45.3933 882.252 44.38H877.452V42.24H885.012V44.68C884.825 45.6533 884.425 46.5533 883.812 47.38C883.198 48.2067 882.405 48.8733 881.432 49.38C880.472 49.8733 879.392 50.12 878.192 50.12C876.845 50.12 875.625 49.82 874.532 49.22C873.452 48.6067 872.598 47.76 871.972 46.68C871.358 45.6 871.052 44.3733 871.052 43C871.052 41.6267 871.358 40.4 871.972 39.32C872.598 38.2267 873.452 37.38 874.532 36.78C875.625 36.1667 876.838 35.86 878.172 35.86C879.745 35.86 881.112 36.2467 882.272 37.02C883.432 37.78 884.232 38.8533 884.672 40.24H881.452ZM898.663 36.04V50H895.863V44.06H889.883V50H887.083V36.04H889.883V41.78H895.863V36.04H898.663ZM910.919 36.04V38.3H907.199V50H904.399V38.3H900.679V36.04H910.919ZM922.548 50.14C921.574 50.14 920.694 49.9733 919.908 49.64C919.134 49.3067 918.521 48.8267 918.068 48.2C917.614 47.5733 917.381 46.8333 917.368 45.98H920.368C920.408 46.5533 920.608 47.0067 920.968 47.34C921.341 47.6733 921.848 47.84 922.488 47.84C923.141 47.84 923.654 47.6867 924.028 47.38C924.401 47.06 924.588 46.6467 924.588 46.14C924.588 45.7267 924.461 45.3867 924.208 45.12C923.954 44.8533 923.634 44.6467 923.248 44.5C922.874 44.34 922.354 44.1667 921.688 43.98C920.781 43.7133 920.041 43.4533 919.468 43.2C918.908 42.9333 918.421 42.54 918.008 42.02C917.608 41.4867 917.408 40.78 917.408 39.9C917.408 39.0733 917.614 38.3533 918.028 37.74C918.441 37.1267 919.021 36.66 919.768 36.34C920.514 36.0067 921.368 35.84 922.328 35.84C923.768 35.84 924.934 36.1933 925.828 36.9C926.734 37.5933 927.234 38.5667 927.328 39.82H924.248C924.221 39.34 924.014 38.9467 923.628 38.64C923.254 38.32 922.754 38.16 922.128 38.16C921.581 38.16 921.141 38.3 920.808 38.58C920.488 38.86 920.328 39.2667 920.328 39.8C920.328 40.1733 920.448 40.4867 920.688 40.74C920.941 40.98 921.248 41.18 921.608 41.34C921.981 41.4867 922.501 41.66 923.168 41.86C924.074 42.1267 924.814 42.3933 925.388 42.66C925.961 42.9267 926.454 43.3267 926.868 43.86C927.281 44.3933 927.488 45.0933 927.488 45.96C927.488 46.7067 927.294 47.4 926.908 48.04C926.521 48.68 925.954 49.1933 925.208 49.58C924.461 49.9533 923.574 50.14 922.548 50.14ZM939.415 36.04V38.3H935.695V50H932.895V38.3H929.175V36.04H939.415ZM950.018 47.34H944.458L943.538 50H940.598L945.618 36.02H948.878L953.898 50H950.938L950.018 47.34ZM949.258 45.1L947.238 39.26L945.218 45.1H949.258ZM965.275 36.04V38.3H961.555V50H958.755V38.3H955.035V36.04H965.275ZM970.078 36.04V44.68C970.078 45.6267 970.324 46.3533 970.818 46.86C971.311 47.3533 972.004 47.6 972.898 47.6C973.804 47.6 974.504 47.3533 974.998 46.86C975.491 46.3533 975.738 45.6267 975.738 44.68V36.04H978.558V44.66C978.558 45.8467 978.298 46.8533 977.778 47.68C977.271 48.4933 976.584 49.1067 975.718 49.52C974.864 49.9333 973.911 50.14 972.858 50.14C971.818 50.14 970.871 49.9333 970.018 49.52C969.178 49.1067 968.511 48.4933 968.018 47.68C967.524 46.8533 967.278 45.8467 967.278 44.66V36.04H970.078ZM986.083 50.14C985.109 50.14 984.229 49.9733 983.443 49.64C982.669 49.3067 982.056 48.8267 981.603 48.2C981.149 47.5733 980.916 46.8333 980.903 45.98H983.903C983.943 46.5533 984.143 47.0067 984.503 47.34C984.876 47.6733 985.383 47.84 986.023 47.84C986.676 47.84 987.189 47.6867 987.563 47.38C987.936 47.06 988.123 46.6467 988.123 46.14C988.123 45.7267 987.996 45.3867 987.743 45.12C987.489 44.8533 987.169 44.6467 986.783 44.5C986.409 44.34 985.889 44.1667 985.223 43.98C984.316 43.7133 983.576 43.4533 983.003 43.2C982.443 42.9333 981.956 42.54 981.543 42.02C981.143 41.4867 980.943 40.78 980.943 39.9C980.943 39.0733 981.149 38.3533 981.563 37.74C981.976 37.1267 982.556 36.66 983.303 36.34C984.049 36.0067 984.903 35.84 985.863 35.84C987.303 35.84 988.469 36.1933 989.363 36.9C990.269 37.5933 990.769 38.5667 990.863 39.82H987.783C987.756 39.34 987.549 38.9467 987.163 38.64C986.789 38.32 986.289 38.16 985.663 38.16C985.116 38.16 984.676 38.3 984.343 38.58C984.023 38.86 983.863 39.2667 983.863 39.8C983.863 40.1733 983.983 40.4867 984.223 40.74C984.476 40.98 984.783 41.18 985.143 41.34C985.516 41.4867 986.036 41.66 986.703 41.86C987.609 42.1267 988.349 42.3933 988.923 42.66C989.496 42.9267 989.989 43.3267 990.403 43.86C990.816 44.3933 991.023 45.0933 991.023 45.96C991.023 46.7067 990.829 47.4 990.443 48.04C990.056 48.68 989.489 49.1933 988.743 49.58C987.996 49.9533 987.109 50.14 986.083 50.14Z" fill="#003166"/>
</g>
<g id="Group 16" filter="url(#filter5_d_0_1)">
<rect id="Rectangle 7" x="1057" y="6" width="250" height="75" rx="37.5" fill="#D3D3D3" fill-opacity="0.5"/>
<path id="FLIGHT SCHEDULE" d="M1106 36.04V38.3H1100.18V41.88H1104.64V44.1H1100.18V50H1097.38V36.04H1106ZM1110.79 47.78H1115.39V50H1107.99V36.04H1110.79V47.78ZM1119.97 36.04V50H1117.17V36.04H1119.97ZM1132.45 40.24C1132.13 39.6533 1131.69 39.2067 1131.13 38.9C1130.57 38.5933 1129.92 38.44 1129.17 38.44C1128.34 38.44 1127.61 38.6267 1126.97 39C1126.33 39.3733 1125.83 39.9067 1125.47 40.6C1125.11 41.2933 1124.93 42.0933 1124.93 43C1124.93 43.9333 1125.11 44.7467 1125.47 45.44C1125.84 46.1333 1126.36 46.6667 1127.01 47.04C1127.66 47.4133 1128.42 47.6 1129.29 47.6C1130.36 47.6 1131.23 47.32 1131.91 46.76C1132.59 46.1867 1133.04 45.3933 1133.25 44.38H1128.45V42.24H1136.01V44.68C1135.82 45.6533 1135.42 46.5533 1134.81 47.38C1134.2 48.2067 1133.4 48.8733 1132.43 49.38C1131.47 49.8733 1130.39 50.12 1129.19 50.12C1127.84 50.12 1126.62 49.82 1125.53 49.22C1124.45 48.6067 1123.6 47.76 1122.97 46.68C1122.36 45.6 1122.05 44.3733 1122.05 43C1122.05 41.6267 1122.36 40.4 1122.97 39.32C1123.6 38.2267 1124.45 37.38 1125.53 36.78C1126.62 36.1667 1127.84 35.86 1129.17 35.86C1130.74 35.86 1132.11 36.2467 1133.27 37.02C1134.43 37.78 1135.23 38.8533 1135.67 40.24H1132.45ZM1149.66 36.04V50H1146.86V44.06H1140.88V50H1138.08V36.04H1140.88V41.78H1146.86V36.04H1149.66ZM1161.92 36.04V38.3H1158.2V50H1155.4V38.3H1151.68V36.04H1161.92ZM1173.55 50.14C1172.57 50.14 1171.69 49.9733 1170.91 49.64C1170.13 49.3067 1169.52 48.8267 1169.07 48.2C1168.61 47.5733 1168.38 46.8333 1168.37 45.98H1171.37C1171.41 46.5533 1171.61 47.0067 1171.97 47.34C1172.34 47.6733 1172.85 47.84 1173.49 47.84C1174.14 47.84 1174.65 47.6867 1175.03 47.38C1175.4 47.06 1175.59 46.6467 1175.59 46.14C1175.59 45.7267 1175.46 45.3867 1175.21 45.12C1174.95 44.8533 1174.63 44.6467 1174.25 44.5C1173.87 44.34 1173.35 44.1667 1172.69 43.98C1171.78 43.7133 1171.04 43.4533 1170.47 43.2C1169.91 42.9333 1169.42 42.54 1169.01 42.02C1168.61 41.4867 1168.41 40.78 1168.41 39.9C1168.41 39.0733 1168.61 38.3533 1169.03 37.74C1169.44 37.1267 1170.02 36.66 1170.77 36.34C1171.51 36.0067 1172.37 35.84 1173.33 35.84C1174.77 35.84 1175.93 36.1933 1176.83 36.9C1177.73 37.5933 1178.23 38.5667 1178.33 39.82H1175.25C1175.22 39.34 1175.01 38.9467 1174.63 38.64C1174.25 38.32 1173.75 38.16 1173.13 38.16C1172.58 38.16 1172.14 38.3 1171.81 38.58C1171.49 38.86 1171.33 39.2667 1171.33 39.8C1171.33 40.1733 1171.45 40.4867 1171.69 40.74C1171.94 40.98 1172.25 41.18 1172.61 41.34C1172.98 41.4867 1173.5 41.66 1174.17 41.86C1175.07 42.1267 1175.81 42.3933 1176.39 42.66C1176.96 42.9267 1177.45 43.3267 1177.87 43.86C1178.28 44.3933 1178.49 45.0933 1178.49 45.96C1178.49 46.7067 1178.29 47.4 1177.91 48.04C1177.52 48.68 1176.95 49.1933 1176.21 49.58C1175.46 49.9533 1174.57 50.14 1173.55 50.14ZM1180.24 43C1180.24 41.6267 1180.54 40.4 1181.16 39.32C1181.78 38.2267 1182.63 37.38 1183.7 36.78C1184.78 36.1667 1185.98 35.86 1187.32 35.86C1188.88 35.86 1190.24 36.26 1191.42 37.06C1192.59 37.86 1193.41 38.9667 1193.88 40.38H1190.66C1190.34 39.7133 1189.88 39.2133 1189.3 38.88C1188.72 38.5467 1188.06 38.38 1187.3 38.38C1186.48 38.38 1185.76 38.5733 1185.12 38.96C1184.49 39.3333 1184 39.8667 1183.64 40.56C1183.29 41.2533 1183.12 42.0667 1183.12 43C1183.12 43.92 1183.29 44.7333 1183.64 45.44C1184 46.1333 1184.49 46.6733 1185.12 47.06C1185.76 47.4333 1186.48 47.62 1187.3 47.62C1188.06 47.62 1188.72 47.4533 1189.3 47.12C1189.88 46.7733 1190.34 46.2667 1190.66 45.6H1193.88C1193.41 47.0267 1192.59 48.14 1191.42 48.94C1190.26 49.7267 1188.89 50.12 1187.32 50.12C1185.98 50.12 1184.78 49.82 1183.7 49.22C1182.63 48.6067 1181.78 47.76 1181.16 46.68C1180.54 45.6 1180.24 44.3733 1180.24 43ZM1207.85 36.04V50H1205.05V44.06H1199.07V50H1196.27V36.04H1199.07V41.78H1205.05V36.04H1207.85ZM1213.4 38.3V41.8H1218.1V44.02H1213.4V47.72H1218.7V50H1210.6V36.02H1218.7V38.3H1213.4ZM1226.13 36.04C1227.59 36.04 1228.88 36.3267 1229.99 36.9C1231.11 37.4733 1231.97 38.2933 1232.57 39.36C1233.18 40.4133 1233.49 41.64 1233.49 43.04C1233.49 44.44 1233.18 45.6667 1232.57 46.72C1231.97 47.76 1231.11 48.5667 1229.99 49.14C1228.88 49.7133 1227.59 50 1226.13 50H1221.25V36.04H1226.13ZM1226.03 47.62C1227.49 47.62 1228.63 47.22 1229.43 46.42C1230.23 45.62 1230.63 44.4933 1230.63 43.04C1230.63 41.5867 1230.23 40.4533 1229.43 39.64C1228.63 38.8133 1227.49 38.4 1226.03 38.4H1224.05V47.62H1226.03ZM1238.34 36.04V44.68C1238.34 45.6267 1238.59 46.3533 1239.08 46.86C1239.58 47.3533 1240.27 47.6 1241.16 47.6C1242.07 47.6 1242.77 47.3533 1243.26 46.86C1243.76 46.3533 1244 45.6267 1244 44.68V36.04H1246.82V44.66C1246.82 45.8467 1246.56 46.8533 1246.04 47.68C1245.54 48.4933 1244.85 49.1067 1243.98 49.52C1243.13 49.9333 1242.18 50.14 1241.12 50.14C1240.08 50.14 1239.14 49.9333 1238.28 49.52C1237.44 49.1067 1236.78 48.4933 1236.28 47.68C1235.79 46.8533 1235.54 45.8467 1235.54 44.66V36.04H1238.34ZM1252.33 47.78H1256.93V50H1249.53V36.04H1252.33V47.78ZM1261.51 38.3V41.8H1266.21V44.02H1261.51V47.72H1266.81V50H1258.71V36.02H1266.81V38.3H1261.51Z" fill="#003166"/>
</g>
<g id="Group 17" filter="url(#filter6_d_0_1)">
<rect id="Rectangle 9_2" x="1008" y="284" width="250" height="75" rx="37.5" fill="#D3D3D3" fill-opacity="0.5"/>
<path id="BOOK TRIP" d="M1090.3 321.84C1091.09 321.987 1091.73 322.38 1092.24 323.02C1092.75 323.66 1093 324.393 1093 325.22C1093 325.967 1092.81 326.627 1092.44 327.2C1092.08 327.76 1091.55 328.2 1090.86 328.52C1090.17 328.84 1089.35 329 1088.4 329H1082.38V315.04H1088.14C1089.09 315.04 1089.9 315.193 1090.58 315.5C1091.27 315.807 1091.79 316.233 1092.14 316.78C1092.5 317.327 1092.68 317.947 1092.68 318.64C1092.68 319.453 1092.46 320.133 1092.02 320.68C1091.59 321.227 1091.02 321.613 1090.3 321.84ZM1085.18 320.8H1087.74C1088.41 320.8 1088.92 320.653 1089.28 320.36C1089.64 320.053 1089.82 319.62 1089.82 319.06C1089.82 318.5 1089.64 318.067 1089.28 317.76C1088.92 317.453 1088.41 317.3 1087.74 317.3H1085.18V320.8ZM1088 326.72C1088.68 326.72 1089.21 326.56 1089.58 326.24C1089.97 325.92 1090.16 325.467 1090.16 324.88C1090.16 324.28 1089.96 323.813 1089.56 323.48C1089.16 323.133 1088.62 322.96 1087.94 322.96H1085.18V326.72H1088ZM1101.71 329.14C1100.4 329.14 1099.2 328.833 1098.11 328.22C1097.02 327.607 1096.15 326.76 1095.51 325.68C1094.87 324.587 1094.55 323.353 1094.55 321.98C1094.55 320.62 1094.87 319.4 1095.51 318.32C1096.15 317.227 1097.02 316.373 1098.11 315.76C1099.2 315.147 1100.4 314.84 1101.71 314.84C1103.03 314.84 1104.23 315.147 1105.31 315.76C1106.4 316.373 1107.26 317.227 1107.89 318.32C1108.53 319.4 1108.85 320.62 1108.85 321.98C1108.85 323.353 1108.53 324.587 1107.89 325.68C1107.26 326.76 1106.4 327.607 1105.31 328.22C1104.22 328.833 1103.02 329.14 1101.71 329.14ZM1101.71 326.64C1102.55 326.64 1103.29 326.453 1103.93 326.08C1104.57 325.693 1105.07 325.147 1105.43 324.44C1105.79 323.733 1105.97 322.913 1105.97 321.98C1105.97 321.047 1105.79 320.233 1105.43 319.54C1105.07 318.833 1104.57 318.293 1103.93 317.92C1103.29 317.547 1102.55 317.36 1101.71 317.36C1100.87 317.36 1100.12 317.547 1099.47 317.92C1098.83 318.293 1098.33 318.833 1097.97 319.54C1097.61 320.233 1097.43 321.047 1097.43 321.98C1097.43 322.913 1097.61 323.733 1097.97 324.44C1098.33 325.147 1098.83 325.693 1099.47 326.08C1100.12 326.453 1100.87 326.64 1101.71 326.64ZM1117.41 329.14C1116.11 329.14 1114.91 328.833 1113.81 328.22C1112.72 327.607 1111.85 326.76 1111.21 325.68C1110.57 324.587 1110.25 323.353 1110.25 321.98C1110.25 320.62 1110.57 319.4 1111.21 318.32C1111.85 317.227 1112.72 316.373 1113.81 315.76C1114.91 315.147 1116.11 314.84 1117.41 314.84C1118.73 314.84 1119.93 315.147 1121.01 315.76C1122.11 316.373 1122.97 317.227 1123.59 318.32C1124.23 319.4 1124.55 320.62 1124.55 321.98C1124.55 323.353 1124.23 324.587 1123.59 325.68C1122.97 326.76 1122.11 327.607 1121.01 328.22C1119.92 328.833 1118.72 329.14 1117.41 329.14ZM1117.41 326.64C1118.25 326.64 1118.99 326.453 1119.63 326.08C1120.27 325.693 1120.77 325.147 1121.13 324.44C1121.49 323.733 1121.67 322.913 1121.67 321.98C1121.67 321.047 1121.49 320.233 1121.13 319.54C1120.77 318.833 1120.27 318.293 1119.63 317.92C1118.99 317.547 1118.25 317.36 1117.41 317.36C1116.57 317.36 1115.83 317.547 1115.17 317.92C1114.53 318.293 1114.03 318.833 1113.67 319.54C1113.31 320.233 1113.13 321.047 1113.13 321.98C1113.13 322.913 1113.31 323.733 1113.67 324.44C1114.03 325.147 1114.53 325.693 1115.17 326.08C1115.83 326.453 1116.57 326.64 1117.41 326.64ZM1134.52 329L1129.44 322.78V329H1126.64V315.04H1129.44V321.3L1134.52 315.04H1137.9L1132.14 321.96L1138.06 329H1134.52ZM1154.17 315.04V317.3H1150.45V329H1147.65V317.3H1143.93V315.04H1154.17ZM1163.41 329L1160.33 323.56H1159.01V329H1156.21V315.04H1161.45C1162.53 315.04 1163.45 315.233 1164.21 315.62C1164.97 315.993 1165.53 316.507 1165.91 317.16C1166.29 317.8 1166.49 318.52 1166.49 319.32C1166.49 320.24 1166.22 321.073 1165.69 321.82C1165.15 322.553 1164.36 323.06 1163.31 323.34L1166.65 329H1163.41ZM1159.01 321.46H1161.35C1162.11 321.46 1162.67 321.28 1163.05 320.92C1163.42 320.547 1163.61 320.033 1163.61 319.38C1163.61 318.74 1163.42 318.247 1163.05 317.9C1162.67 317.54 1162.11 317.36 1161.35 317.36H1159.01V321.46ZM1171.82 315.04V329H1169.02V315.04H1171.82ZM1184.77 319.36C1184.77 320.107 1184.59 320.807 1184.23 321.46C1183.88 322.113 1183.33 322.64 1182.57 323.04C1181.82 323.44 1180.87 323.64 1179.73 323.64H1177.39V329H1174.59V315.04H1179.73C1180.81 315.04 1181.73 315.227 1182.49 315.6C1183.25 315.973 1183.81 316.487 1184.19 317.14C1184.57 317.793 1184.77 318.533 1184.77 319.36ZM1179.61 321.38C1180.38 321.38 1180.95 321.207 1181.33 320.86C1181.7 320.5 1181.89 320 1181.89 319.36C1181.89 318 1181.13 317.32 1179.61 317.32H1177.39V321.38H1179.61Z" fill="#003166"/>
</g>
</g>
</g>
<defs>
<filter id="filter0_d_0_1" x="2" y="99" width="1320" height="320" filterUnits="userSpaceOnUse" color-interpolation-filters="sRGB">
<feFlood flood-opacity="0" result="BackgroundImageFix"/>
<feColorMatrix in="SourceAlpha" type="matrix" values="0 0 0 0 0 0 0 0 0 0 0 0 0 0 0 0 0 0 127 0" result="hardAlpha"/>
<feOffset dx="5" dy="5"/>
<feGaussianBlur stdDeviation="5"/>
<feComposite in2="hardAlpha" operator="out"/>
<feColorMatrix type="matrix" values="0 0 0 0 0 0 0 0 0 0 0 0 0 0 0 0 0 0 0.15 0"/>
<feBlend mode="normal" in2="BackgroundImageFix" result="effect1_dropShadow_0_1"/>
<feBlend mode="normal" in="SourceGraphic" in2="effect1_dropShadow_0_1" result="shape"/>
</filter>
<filter id="filter1_d_0_1" x="0" y="0" width="270" height="95" filterUnits="userSpaceOnUse" color-interpolation-filters="sRGB">
<feFlood flood-opacity="0" result="BackgroundImageFix"/>
<feColorMatrix in="SourceAlpha" type="matrix" values="0 0 0 0 0 0 0 0 0 0 0 0 0 0 0 0 0 0 127 0" result="hardAlpha"/>
<feOffset dx="3" dy="4"/>
<feGaussianBlur stdDeviation="5"/>
<feComposite in2="hardAlpha" operator="out"/>
<feColorMatrix type="matrix" values="0 0 0 0 0 0 0 0 0 0 0 0 0 0 0 0 0 0 0.2 0"/>
<feBlend mode="normal" in2="BackgroundImageFix" result="effect1_dropShadow_0_1"/>
<feBlend mode="normal" in="SourceGraphic" in2="effect1_dropShadow_0_1" result="shape"/>
</filter>
<filter id="filter2_d_0_1" x="262" y="0" width="270" height="95" filterUnits="userSpaceOnUse" color-interpolation-filters="sRGB">
<feFlood flood-opacity="0" result="BackgroundImageFix"/>
<feColorMatrix in="SourceAlpha" type="matrix" values="0 0 0 0 0 0 0 0 0 0 0 0 0 0 0 0 0 0 127 0" result="hardAlpha"/>
<feOffset dx="3" dy="4"/>
<feGaussianBlur stdDeviation="5"/>
<feComposite in2="hardAlpha" operator="out"/>
<feColorMatrix type="matrix" values="0 0 0 0 0 0 0 0 0 0 0 0 0 0 0 0 0 0 0.2 0"/>
<feBlend mode="normal" in2="BackgroundImageFix" result="effect1_dropShadow_0_1"/>
<feBlend mode="normal" in="SourceGraphic" in2="effect1_dropShadow_0_1" result="shape"/>
</filter>
<filter id="filter3_d_0_1" x="524" y="0" width="270" height="95" filterUnits="userSpaceOnUse" color-interpolation-filters="sRGB">
<feFlood flood-opacity="0" result="BackgroundImageFix"/>
<feColorMatrix in="SourceAlpha" type="matrix" values="0 0 0 0 0 0 0 0 0 0 0 0 0 0 0 0 0 0 127 0" result="hardAlpha"/>
<feOffset dx="3" dy="4"/>
<feGaussianBlur stdDeviation="5"/>
<feComposite in2="hardAlpha" operator="out"/>
<feColorMatrix type="matrix" values="0 0 0 0 0 0 0 0 0 0 0 0 0 0 0 0 0 0 0.2 0"/>
<feBlend mode="normal" in2="BackgroundImageFix" result="effect1_dropShadow_0_1"/>
<feBlend mode="normal" in="SourceGraphic" in2="effect1_dropShadow_0_1" result="shape"/>
</filter>
<filter id="filter4_d_0_1" x="787" y="0" width="270" height="95" filterUnits="userSpaceOnUse" color-interpolation-filters="sRGB">
<feFlood flood-opacity="0" result="BackgroundImageFix"/>
<feColorMatrix in="SourceAlpha" type="matrix" values="0 0 0 0 0 0 0 0 0 0 0 0 0 0 0 0 0 0 127 0" result="hardAlpha"/>
<feOffset dx="3" dy="4"/>
<feGaussianBlur stdDeviation="5"/>
<feComposite in2="hardAlpha" operator="out"/>
<feColorMatrix type="matrix" values="0 0 0 0 0 0 0 0 0 0 0 0 0 0 0 0 0 0 0.2 0"/>
<feBlend mode="normal" in2="BackgroundImageFix" result="effect1_dropShadow_0_1"/>
<feBlend mode="normal" in="SourceGraphic" in2="effect1_dropShadow_0_1" result="shape"/>
</filter>
<filter id="filter5_d_0_1" x="1050" y="0" width="270" height="95" filterUnits="userSpaceOnUse" color-interpolation-filters="sRGB">
<feFlood flood-opacity="0" result="BackgroundImageFix"/>
<feColorMatrix in="SourceAlpha" type="matrix" values="0 0 0 0 0 0 0 0 0 0 0 0 0 0 0 0 0 0 127 0" result="hardAlpha"/>
<feOffset dx="3" dy="4"/>
<feGaussianBlur stdDeviation="5"/>
<feComposite in2="hardAlpha" operator="out"/>
<feColorMatrix type="matrix" values="0 0 0 0 0 0 0 0 0 0 0 0 0 0 0 0 0 0 0.2 0"/>
<feBlend mode="normal" in2="BackgroundImageFix" result="effect1_dropShadow_0_1"/>
<feBlend mode="normal" in="SourceGraphic" in2="effect1_dropShadow_0_1" result="shape"/>
</filter>
<filter id="filter6_d_0_1" x="1001" y="278" width="270" height="95" filterUnits="userSpaceOnUse" color-interpolation-filters="sRGB">
<feFlood flood-opacity="0" result="BackgroundImageFix"/>
<feColorMatrix in="SourceAlpha" type="matrix" values="0 0 0 0 0 0 0 0 0 0 0 0 0 0 0 0 0 0 127 0" result="hardAlpha"/>
<feOffset dx="3" dy="4"/>
<feGaussianBlur stdDeviation="5"/>
<feComposite in2="hardAlpha" operator="out"/>
<feColorMatrix type="matrix" values="0 0 0 0 0 0 0 0 0 0 0 0 0 0 0 0 0 0 0.2 0"/>
<feBlend mode="normal" in2="BackgroundImageFix" result="effect1_dropShadow_0_1"/>
<feBlend mode="normal" in="SourceGraphic" in2="effect1_dropShadow_0_1" result="shape"/>
</filter>
</defs>
</svg>
